<svg width="118" height="129" viewBox="0 0 118 129" fill="none" xmlns="http://www.w3.org/2000/svg">
<path d="M113.413 128.176H10.5103C7.97477 128.176 5.92041 126.082 5.92041 123.489V53.9621C5.92041 51.3871 7.97477 49.2751 10.5103 49.2751H113.413C115.949 49.2751 118.003 51.3685 118.003 53.9621V123.507C118.003 126.082 115.949 128.194 113.413 128.194V128.176Z" fill="#CEE4FF"/>
<path d="M112.506 54.8882H11.4355V122.562H112.506V54.8882Z" fill="#091F3E"/>
<path d="M115.264 52.0908H8.67773V77.7858H115.264V52.0908Z" fill="#CEE4FF"/>
<path d="M92.4812 94.959H31.4426C30.4247 94.959 29.6104 94.1253 29.6104 93.0879C29.6104 92.0504 30.4432 91.2168 31.4426 91.2168H92.4812C93.4991 91.2168 94.3135 92.0504 94.3135 93.0879C94.3135 94.1253 93.4991 94.959 92.4812 94.959Z" fill="#CEE4FF"/>
<path d="M92.4812 104.185H31.4426C30.4247 104.185 29.6104 103.351 29.6104 102.314C29.6104 101.276 30.4432 100.443 31.4426 100.443H92.4812C93.4991 100.443 94.3135 101.276 94.3135 102.314C94.3135 103.351 93.4991 104.185 92.4812 104.185Z" fill="#CEE4FF"/>
<path d="M92.4812 113.41H31.4426C30.4247 113.41 29.6104 112.577 29.6104 111.539C29.6104 110.502 30.4432 109.668 31.4426 109.668H92.4812C93.4991 109.668 94.3135 110.502 94.3135 111.539C94.3135 112.577 93.4991 113.41 92.4812 113.41Z" fill="#CEE4FF"/>
<path d="M73.4549 52.0908H57.9824L33.145 77.7673H48.599L73.4549 52.0908Z" fill="#091F3E"/>
<path d="M26.9819 52.0908L8.67773 71.0054V77.7672H17.5985L42.4359 52.0908H26.9819Z" fill="#091F3E"/>
<path d="M104.455 52.0908H89.0014L64.1455 77.7673H79.618L104.455 52.0908Z" fill="#091F3E"/>
<path d="M110.619 77.7672L115.264 72.9876V57L95.1646 77.7672H110.619Z" fill="#091F3E"/>
<path d="M118.003 80.5833H5.92041V54.24C5.92041 51.4982 7.97477 49.2751 10.5103 49.2751H113.413C115.949 49.2751 118.003 51.4982 118.003 54.24V80.5833ZM11.4357 74.9701H112.488V54.8884H11.4357V74.9701Z" fill="#CEE4FF"/>
<path d="M102.549 2.86844L5.49463 23.0057C3.58833 23.3948 2.3298 25.2288 2.71847 27.0628L5.77225 41.8277C6.16091 43.6803 8.03019 44.8474 9.93649 44.4583L106.991 24.321C108.897 23.932 110.138 22.098 109.767 20.2639L106.714 5.49907C106.325 3.64652 104.474 2.47941 102.549 2.86844Z" fill="#CEE4FF"/>
<path d="M107.546 27.0627L10.5101 47.2C7.1787 47.904 3.88432 45.718 3.18102 42.3648L0.127242 27.6185C-0.557545 24.2654 1.58936 20.9678 4.93926 20.2639L101.975 0.126568C105.307 -0.558878 108.601 1.60861 109.305 4.96174L112.358 19.7081C113.062 23.0612 110.896 26.3588 107.565 27.0627H107.546ZM6.06823 25.7659C5.58703 25.8586 5.2724 26.2661 5.32792 26.544L8.3817 41.2904C8.43723 41.5683 8.88141 41.8091 9.38112 41.7165L106.417 21.5792C106.917 21.4865 107.213 21.079 107.158 20.8011L104.104 6.03622C104.048 5.75834 103.604 5.51751 103.104 5.61013L6.06823 25.7659Z" fill="#CEE4FF"/>
<path d="M4.84668 25.0621L25.0942 39.4009L39.6783 36.3812L19.4308 22.0239L4.84668 25.0621Z" fill="#091F3E"/>
<path d="M34.0703 18.9857L54.3363 33.343L68.9204 30.3049L48.6544 15.9661L34.0703 18.9857Z" fill="#091F3E"/>
<path d="M92.5737 6.85154L107.343 17.3185L104.659 4.35059L92.5737 6.85154Z" fill="#091F3E"/>
<path d="M63.3311 12.9278L83.5785 27.2666L98.1627 24.247L77.9152 9.88965L63.3311 12.9278Z" fill="#091F3E"/>
</svg>
