<svg width="274" height="223" viewBox="0 0 274 223" fill="none" xmlns="http://www.w3.org/2000/svg">
<path d="M137 -94C61.4557 -94 0 -32.9433 0 42.1105C0 44.5403 0.0600153 46.9402 0.19505 49.3402C0.0750192 49.1017 0 48.9675 0 48.9675V223H54.0138V164.522C30.6828 146.008 13.9236 119.803 9.0173 90.6608C28.7323 141.805 78.6651 178.236 137 178.236C212.544 178.236 274 117.179 274 42.1255C274 -32.9284 212.544 -94 137 -94ZM86.092 103.212C72.7986 110.844 55.7843 106.313 48.1023 93.1054C40.4203 79.8983 44.9815 62.9944 58.2749 55.3624C71.5683 47.7303 88.5826 52.2618 96.2646 65.4689C103.947 78.676 99.3854 95.5799 86.092 103.212ZM96.2646 18.7522C88.5826 31.9593 71.5833 36.4908 58.2749 28.8587C44.9815 21.2266 40.4203 4.33767 48.1023 -8.88432C55.7843 -22.0914 72.7836 -26.623 86.092 -18.9909C99.3854 -11.3588 103.947 5.53019 96.2646 18.7522ZM136.985 144.085C121.621 144.085 109.183 131.713 109.183 116.464C109.183 101.215 121.636 88.8422 136.985 88.8422C152.334 88.8422 164.787 101.215 164.787 116.464C164.787 131.713 152.334 144.085 136.985 144.085ZM115.545 49.534C117.585 48.3712 120.181 49.0569 121.351 51.0842C122.521 53.1115 121.831 55.6903 119.791 56.853C117.75 58.0157 115.154 57.33 113.984 55.3027C112.814 53.2755 113.504 50.6967 115.545 49.534ZM113.984 28.9184C115.154 26.8911 117.765 26.2054 119.791 27.3681C121.831 28.5308 122.521 31.1245 121.351 33.1369C120.181 35.1642 117.57 35.8499 115.545 34.6871C113.504 33.5245 112.814 30.9307 113.984 28.9184ZM136.985 60.043C139.341 60.043 141.231 61.9361 141.231 64.2615C141.231 66.5869 139.326 68.48 136.985 68.48C134.644 68.48 132.739 66.5869 132.739 64.2615C132.739 61.9361 134.644 60.043 136.985 60.043ZM132.739 19.9447C132.739 17.6044 134.644 15.7262 136.985 15.7262C139.326 15.7262 141.231 17.6193 141.231 19.9447C141.231 22.2701 139.326 24.1632 136.985 24.1632C134.644 24.1632 132.739 22.2701 132.739 19.9447ZM152.619 51.0693C153.789 49.042 156.4 48.3563 158.425 49.519C160.466 50.6817 161.156 53.2755 159.986 55.2878C158.816 57.3151 156.205 58.0008 154.179 56.8381C152.139 55.6754 151.449 53.0817 152.619 51.0693ZM154.179 27.3681C156.22 26.2054 158.816 26.8911 159.986 28.9184C161.156 30.9456 160.466 33.5245 158.425 34.6871C156.385 35.8499 153.789 35.1642 152.619 33.1369C151.449 31.1096 152.139 28.5308 154.179 27.3681ZM136.985 -4.60618C121.621 -4.60618 109.183 -16.9785 109.183 -32.2278C109.183 -47.4771 121.636 -59.8494 136.985 -59.8494C152.334 -59.8494 164.787 -47.4771 164.787 -32.2278C164.787 -16.9785 152.334 -4.60618 136.985 -4.60618ZM225.868 93.0905C218.186 106.298 201.186 110.829 187.878 103.197C174.585 95.565 170.023 78.676 177.705 65.454C185.387 52.232 202.387 47.7154 215.695 55.3475C228.988 62.9795 233.55 79.8685 225.868 93.0905ZM215.695 28.8587C202.402 36.4908 185.387 31.9593 177.705 18.7522C170.023 5.54509 174.585 -11.3588 187.878 -18.9909C201.171 -26.623 218.186 -22.0914 225.868 -8.88432C233.55 4.32276 228.988 21.2266 215.695 28.8587Z" fill="#091F3E"/>
</svg>
