<svg width="94" height="20" viewBox="0 0 94 20" fill="none" xmlns="http://www.w3.org/2000/svg">
<path d="M7.41776 2.14301C3.80591 2.14301 0.86731 5.06454 0.86731 8.65647C0.86731 8.77311 0.870154 8.88784 0.876792 9.00258C0.871103 8.9912 0.86731 8.98456 0.86731 8.98456V19.913H3.44937V14.5138C2.33424 13.6281 1.53297 12.3736 1.29781 10.9797C2.24036 13.4271 4.62803 15.1699 7.41681 15.1699C11.0287 15.1699 13.9673 12.2484 13.9673 8.65742C13.9673 5.06643 11.0296 2.14301 7.41776 2.14301ZM4.98362 11.5799C4.3483 11.945 3.53471 11.7278 3.16774 11.0963C2.80077 10.4648 3.01887 9.65592 3.65419 9.2899C4.28951 8.92483 5.1031 9.14197 5.47007 9.7735C5.83704 10.405 5.61895 11.2139 4.98362 11.5799V11.5799ZM5.47007 7.5385C5.1031 8.17003 4.29046 8.38717 3.65419 8.0221C3.01887 7.65703 2.80077 6.84913 3.16774 6.2157C3.53471 5.58417 4.34735 5.36702 4.98362 5.7321C5.61895 6.09717 5.83704 6.90507 5.47007 7.5385ZM7.41681 13.5361C6.68192 13.5361 6.08738 12.9444 6.08738 12.2143C6.08738 11.4841 6.68287 10.8924 7.41681 10.8924C8.15075 10.8924 8.74624 11.4841 8.74624 12.2143C8.74624 12.9444 8.15075 13.5361 7.41681 13.5361ZM6.39176 9.01206C6.48943 8.95612 6.61365 8.98931 6.6696 9.08603C6.72554 9.18275 6.69235 9.30602 6.59469 9.36196C6.49702 9.41791 6.3728 9.38472 6.31685 9.288C6.2609 9.19128 6.29409 9.06801 6.39176 9.01206ZM6.31685 8.02589C6.3728 7.92917 6.49796 7.89598 6.59469 7.95193C6.69235 8.00788 6.72554 8.1321 6.6696 8.22787C6.61365 8.32459 6.48848 8.35778 6.39176 8.30183C6.29409 8.24589 6.2609 8.12167 6.31685 8.02589ZM7.41681 9.51558C7.52965 9.51558 7.61973 9.60661 7.61973 9.71756C7.61973 9.8285 7.5287 9.91953 7.41681 9.91953C7.30492 9.91953 7.21389 9.8285 7.21389 9.71756C7.21389 9.60661 7.30492 9.51558 7.41681 9.51558ZM7.21389 7.59729C7.21389 7.4854 7.30492 7.39531 7.41681 7.39531C7.5287 7.39531 7.61973 7.48634 7.61973 7.59729C7.61973 7.70823 7.5287 7.79926 7.41681 7.79926C7.30492 7.79926 7.21389 7.70823 7.21389 7.59729ZM8.16402 9.08697C8.21997 8.99025 8.34514 8.95707 8.44186 9.01301C8.53953 9.06896 8.57272 9.19318 8.51677 9.28895C8.46082 9.38567 8.33566 9.41886 8.23893 9.36291C8.14127 9.30697 8.10808 9.18275 8.16402 9.08697ZM8.23893 7.95288C8.3366 7.89693 8.46082 7.93012 8.51677 8.02684C8.57272 8.12356 8.53953 8.24683 8.44186 8.30278C8.34419 8.35873 8.21997 8.32554 8.16402 8.22882C8.10808 8.1321 8.14127 8.00882 8.23893 7.95288ZM7.41681 6.42337C6.68192 6.42337 6.08738 5.83166 6.08738 5.10152C6.08738 4.37137 6.68287 3.77967 7.41681 3.77967C8.15075 3.77967 8.74624 4.37137 8.74624 5.10152C8.74624 5.83166 8.15075 6.42337 7.41681 6.42337ZM11.6668 11.0982C11.2999 11.7297 10.4872 11.9469 9.85094 11.5818C9.21562 11.2167 8.99753 10.4088 9.3645 9.7754C9.73147 9.14292 10.5441 8.92672 11.1804 9.29179C11.8157 9.65687 12.0338 10.4648 11.6668 11.0982ZM11.1804 8.02494C10.5451 8.39002 9.73147 8.17287 9.3645 7.54134C8.99753 6.90981 9.21562 6.10096 9.85094 5.73494C10.4863 5.36987 11.2999 5.58702 11.6668 6.21855C12.0338 6.85007 11.8157 7.65892 11.1804 8.02494Z" fill="#3274F6"/>
<path d="M21.7196 2.14008C18.121 2.14008 15.2042 5.05686 15.2042 8.65544C15.2042 12.254 18.121 15.1708 21.7196 15.1708C25.3182 15.1708 28.2349 12.254 28.2349 8.65544C28.2349 5.05686 25.3182 2.14008 21.7196 2.14008V2.14008ZM24.5017 11.4376C23.7583 12.181 22.7702 12.5897 21.7196 12.5897C20.6689 12.5897 19.6809 12.1801 18.9374 11.4376C18.194 10.6942 17.7853 9.70609 17.7853 8.65544C17.7853 7.60479 18.195 6.61672 18.9374 5.8733C19.6809 5.12988 20.6689 4.72119 21.7196 4.72119C22.7702 4.72119 23.7583 5.13083 24.5017 5.8733C25.2451 6.61672 25.6538 7.60479 25.6538 8.65544C25.6538 9.70609 25.2442 10.6942 24.5017 11.4376V11.4376Z" fill="#3274F6"/>
<path d="M82.6347 2.10605C79.0361 2.10605 76.1193 5.02284 76.1193 8.62141C76.1193 12.22 79.0361 15.1368 82.6347 15.1368C84.113 15.1368 85.4756 14.6446 86.5689 13.8149V15.1368H89.1491V8.68115C89.1491 8.66124 89.1491 8.64227 89.1491 8.62236C89.1491 5.02379 86.2323 2.107 82.6337 2.107L82.6347 2.10605ZM85.4168 11.4036C84.6734 12.147 83.6853 12.5557 82.6347 12.5557C81.584 12.5557 80.596 12.146 79.8525 11.4036C79.1091 10.6601 78.7004 9.67206 78.7004 8.62141C78.7004 7.57076 79.1101 6.58269 79.8525 5.83927C80.596 5.09585 81.584 4.68716 82.6347 4.68716C83.6853 4.68716 84.6734 5.0968 85.4168 5.83927C86.1603 6.58269 86.5689 7.57076 86.5689 8.62141C86.5689 8.63279 86.5689 8.64417 86.5689 8.65555V8.68305C86.5538 9.71094 86.146 10.6753 85.4168 11.4036Z" fill="#3274F6"/>
<path d="M74.8832 8.60244V0H72.303V3.46867C71.2097 2.63896 69.8471 2.14682 68.3688 2.14682C64.7702 2.14682 61.8534 5.06361 61.8534 8.66218C61.8534 12.2608 64.7702 15.1775 68.3688 15.1775C69.8471 15.1775 71.2097 14.6854 72.303 13.8557V15.1444H74.8832V8.72287C74.8832 8.70296 74.8832 8.68304 74.8832 8.66313C74.8832 8.64322 74.8832 8.6233 74.8832 8.60339V8.60244ZM71.1509 11.4443C70.4075 12.1877 69.4194 12.5964 68.3688 12.5964C67.3181 12.5964 66.33 12.1868 65.5866 11.4443C64.8432 10.7009 64.4345 9.71283 64.4345 8.66218C64.4345 7.61153 64.8441 6.62346 65.5866 5.88004C66.33 5.13662 67.3181 4.72793 68.3688 4.72793C69.4194 4.72793 70.4075 5.13757 71.1509 5.88004C71.8791 6.60829 72.2869 7.57265 72.303 8.60055V8.72477C72.2869 9.75266 71.8801 10.7161 71.1509 11.4453V11.4443Z" fill="#3274F6"/>
<path d="M36.0747 2.141C36.0453 2.141 36.0149 2.14005 35.9855 2.14005C32.3869 2.14005 29.4702 5.05684 29.4702 8.65541C29.4702 12.254 32.3869 15.1708 35.9855 15.1708C39.5841 15.1708 42.5009 12.254 42.5009 8.65541C42.5009 7.17616 42.0078 5.81259 41.1771 4.71832H42.6953V2.13815H36.0756V2.141H36.0747ZM38.7677 11.4376C38.0242 12.181 37.0362 12.5897 35.9855 12.5897C34.9349 12.5897 33.9468 12.18 33.2034 11.4376C32.46 10.6941 32.0513 9.70606 32.0513 8.65541C32.0513 7.60476 32.4609 6.6167 33.2034 5.87327C33.9468 5.12985 34.9349 4.72116 35.9855 4.72116C37.0362 4.72116 38.0242 5.1308 38.7677 5.87327C39.5111 6.6167 39.9198 7.60476 39.9198 8.65541C39.9198 9.70606 39.5101 10.6941 38.7677 11.4376Z" fill="#3274F6"/>
<path d="M46.3192 0H43.739V15.1358H46.3192V0Z" fill="#3274F6"/>
<path d="M54.0958 2.09754C50.4992 2.09754 47.5729 5.02381 47.5729 8.62049C47.5729 12.2172 50.4992 15.1434 54.0958 15.1434C55.8387 15.1434 57.4763 14.4645 58.709 13.2327L56.8846 11.4083C56.1402 12.1527 55.1493 12.5633 54.0968 12.5633C52.3738 12.5633 50.9059 11.4529 50.3702 9.91009H60.6197V8.61954C60.6197 5.02286 57.6935 2.09659 54.0968 2.09659L54.0958 2.09754ZM50.3692 7.33088C50.905 5.78809 52.3729 4.6777 54.0958 4.6777C55.8188 4.6777 57.2867 5.78809 57.8224 7.33088H50.3692V7.33088Z" fill="#3274F6"/>
<path d="M93.6966 0H91.1165V2.13828H93.6966V0Z" fill="#3274F6"/>
<path d="M91.1174 16.5553C91.1174 16.9801 90.7722 17.3253 90.3474 17.3253H89.2389V19.9055H90.3474C92.1946 19.9055 93.6975 18.4025 93.6975 16.5553V4.2775H91.1174V16.5553V16.5553Z" fill="#3274F6"/>
<path d="M35.985 17.2988C34.4641 17.2988 33.1422 16.434 32.4851 15.17H29.7191C30.507 17.8867 33.018 19.8789 35.986 19.8789C38.954 19.8789 41.4649 17.8867 42.2529 15.17H39.4869C38.8288 16.434 37.507 17.2988 35.9869 17.2988H35.985Z" fill="#3274F6"/>
</svg>
