<svg width="24" height="28" viewBox="0 0 24 28" fill="none" xmlns="http://www.w3.org/2000/svg">
<path d="M12 0C5.38298 0 0 5.39302 0 12.0224C0 12.237 0.00525682 12.449 0.0170847 12.661C0.00657102 12.6399 0 12.628 0 12.628V28H4.73114V22.8348C2.68755 21.1995 1.21958 18.8848 0.789837 16.3107C2.5167 20.8282 6.89037 24.0461 12 24.0461C18.617 24.0461 24 18.6531 24 12.0237C24 5.39434 18.617 0 12 0ZM7.5409 17.4194C6.37652 18.0935 4.88621 17.6932 4.21334 16.5267C3.54047 15.3601 3.93998 13.867 5.10437 13.1929C6.26875 12.5188 7.75906 12.919 8.43194 14.0856C9.10481 15.2521 8.70529 16.7452 7.5409 17.4194V17.4194ZM8.43194 9.95918C7.75906 11.1257 6.27007 11.526 5.10437 10.8519C3.93998 10.1777 3.54047 8.68598 4.21334 7.5181C4.88621 6.35155 6.37521 5.95128 7.5409 6.62541C8.70529 7.29954 9.10481 8.79131 8.43194 9.95918ZM11.9987 21.0296C10.6529 21.0296 9.56346 19.9368 9.56346 18.5899C9.56346 17.2429 10.6543 16.1501 11.9987 16.1501C13.3431 16.1501 14.4339 17.2429 14.4339 18.5899C14.4339 19.9368 13.3431 21.0296 11.9987 21.0296ZM10.1207 12.6781C10.2994 12.5754 10.5268 12.6359 10.6293 12.815C10.7318 12.9941 10.6713 13.2219 10.4926 13.3246C10.3139 13.4273 10.0865 13.3667 9.98401 13.1876C9.8815 13.0086 9.94196 12.7808 10.1207 12.6781ZM9.98401 10.8571C10.0865 10.6781 10.3152 10.6175 10.4926 10.7202C10.6713 10.8229 10.7318 11.052 10.6293 11.2298C10.5268 11.4088 10.2981 11.4694 10.1207 11.3667C9.94196 11.264 9.8815 11.0349 9.98401 10.8571ZM11.9987 13.6063C12.205 13.6063 12.3706 13.7735 12.3706 13.9789C12.3706 14.1843 12.2037 14.3515 11.9987 14.3515C11.7937 14.3515 11.6268 14.1843 11.6268 13.9789C11.6268 13.7735 11.7937 13.6063 11.9987 13.6063ZM11.6268 10.0645C11.6268 9.8578 11.7937 9.6919 11.9987 9.6919C12.2037 9.6919 12.3706 9.85912 12.3706 10.0645C12.3706 10.2699 12.2037 10.4371 11.9987 10.4371C11.7937 10.4371 11.6268 10.2699 11.6268 10.0645ZM13.3681 12.8137C13.4706 12.6346 13.6993 12.5741 13.8767 12.6768C14.0554 12.7795 14.1159 13.0086 14.0134 13.1863C13.9109 13.3654 13.6822 13.4259 13.5048 13.3232C13.326 13.2205 13.2656 12.9914 13.3681 12.8137ZM13.5048 10.7202C13.6835 10.6175 13.9109 10.6781 14.0134 10.8571C14.1159 11.0362 14.0554 11.264 13.8767 11.3667C13.698 11.4694 13.4706 11.4088 13.3681 11.2298C13.2656 11.0507 13.326 10.8229 13.5048 10.7202ZM11.9987 7.89598C10.6529 7.89598 9.56346 6.80316 9.56346 5.45622C9.56346 4.10928 10.6543 3.01646 11.9987 3.01646C13.3431 3.01646 14.4339 4.10928 14.4339 5.45622C14.4339 6.80316 13.3431 7.89598 11.9987 7.89598ZM19.784 16.5253C19.1112 17.6919 17.6222 18.0922 16.4565 17.418C15.2921 16.7439 14.8926 15.2521 15.5654 14.0843C16.2383 12.9164 17.7273 12.5174 18.893 13.1916C20.0574 13.8657 20.4569 15.3575 19.784 16.5253ZM18.893 10.8519C17.7286 11.526 16.2383 11.1257 15.5654 9.95918C14.8926 8.79263 15.2921 7.29954 16.4565 6.62541C17.6209 5.95128 19.1112 6.35155 19.784 7.5181C20.4569 8.68466 20.0574 10.1777 18.893 10.8519Z" fill="#3274F6"/>
</svg>