<svg width="237" height="278" viewBox="0 0 237 278" fill="none" xmlns="http://www.w3.org/2000/svg">
<g filter="url(#filter0_d_465_20528)">
<path d="M213.604 113.652C213.604 113.652 225.844 75.3134 209.154 63.0816C197.711 54.7025 167.514 54.6778 117.895 54.7435C73.3261 54.8092 44.4446 53.0759 34.4253 60.2967C24.406 67.5176 18.2859 76.9646 18.8453 88.6379C19.4046 100.311 24.406 119.197 24.406 119.197C24.406 119.197 15.5055 110.309 8.26662 114.753C1.03596 119.197 3.81635 132.538 10.4959 152.541C17.1754 172.544 18.2859 174.77 18.2859 174.77C18.2859 174.77 14.3868 174.212 14.9461 180.882C15.5055 187.552 19.3964 206.447 37.2057 210.332C55.015 214.226 92.8464 216.444 125.125 215.335C157.396 214.226 190.629 213.544 201.356 210.332C218.046 205.329 226.395 184.768 226.395 180.323C226.395 175.879 221.386 174.77 221.386 174.77C221.386 174.77 225.836 155.318 227.506 145.32C229.176 135.314 236.966 122.54 229.176 115.87C221.386 109.2 213.596 113.644 213.596 113.644L213.604 113.652Z" fill="#3274F6"/>
<path d="M84.9248 113.562C85.3196 112.469 85.7967 111.418 86.3808 110.424C85.6322 110.218 84.8836 110.029 84.1268 109.865C84.3736 111.105 84.6451 112.338 84.9248 113.562Z" fill="#600500"/>
<path d="M215.48 198.232C213.176 198.47 210.692 198.61 208.142 198.577C206.521 198.659 204.893 198.708 203.272 198.667C200.599 198.61 198.147 198.207 195.861 197.476C195.861 197.476 195.844 197.476 195.836 197.476C184.986 197.139 179.836 189.721 177.582 180.34C177.072 178.229 177.41 176.282 177.92 174.589C179.186 169.266 212.683 170.811 221.386 174.778C221.427 174.573 222.389 170.334 222.43 170.121C220.267 169.02 218.4 167.689 216.796 166.169C216.047 165.487 215.364 164.756 214.747 163.959C214.608 163.787 214.468 163.614 214.328 163.434C214.196 163.253 214.073 163.08 213.949 162.892C203.897 148.82 209.565 124.101 215.216 107.573C217.552 97.6577 220.777 78.0078 213.069 67.115C191.978 99.5389 142.827 91.7841 110.129 88.5639C83.4522 85.9434 40.8826 95.2918 25.9278 68.1336C21.1155 73.9662 18.4668 80.8009 18.8369 88.646C19.3963 100.319 24.3977 119.205 24.3977 119.205C24.3977 119.205 24.3484 119.156 24.2908 119.107C30.3204 136.046 34.162 158.349 25.245 166.26C23.7479 169.324 21.0744 171.082 16.7722 170.852C17.2329 172.125 17.5701 173.012 17.7922 173.604C18.6724 173.193 19.5773 172.807 20.4904 172.462C21.2883 172.043 22.1191 171.78 22.9664 171.591C24.1427 171.213 25.3026 170.86 26.4131 170.54C28.157 170.03 29.9996 169.603 31.8505 169.357C32.6319 169.143 33.4052 168.913 34.1949 168.732C38.3572 167.763 42.898 167.262 46.9534 168.593C51.2638 169.332 54.8751 173.365 54.1923 177.982C53.3039 184.012 56.8575 192.021 50.4577 197.287C42.3962 203.925 27.9102 194.798 18.6231 193.796C20.5233 201.846 31.6695 231.329 51.815 238.772C68.9086 245.089 179.302 244.875 188.358 238.295C206.826 224.897 212.535 211.778 217.684 198.429C217.528 198.412 217.363 198.404 217.207 198.38C216.985 198.338 216.121 198.273 215.471 198.223L215.48 198.232ZM113.099 189.721C113.181 194.017 110.59 196.827 107.192 198.141C104.173 200.269 100.431 201.156 96.4904 201.271C89.9754 202.364 82.7694 201.797 77.0441 199.086C63.9072 192.859 66.3503 175.707 79.224 170.63C84.2254 168.658 90.1811 168.699 95.5691 170.038C98.5387 170.038 101.475 170.441 104.248 171.542C111.388 174.384 114.719 182.024 113.058 189.171C113.058 189.36 113.099 189.532 113.107 189.721H113.099ZM152.501 177.982C152.156 181.137 151.374 184.242 150.79 187.363C150.453 189.13 150.198 190.896 149.951 192.678C149.91 192.95 149.935 193.212 149.968 193.434C150.807 195.849 150.626 198.519 148.882 200.943C146.373 204.426 140.351 205.995 136.88 202.906C129.032 195.932 134.453 184.833 135.408 176.093C136.609 165.101 153.702 166.966 152.501 177.982Z" fill="#0B67D4"/>
<path d="M230.747 117.743C223.294 108.123 213.604 113.652 213.604 113.652C213.604 113.652 225.844 75.3134 209.154 63.0816C197.711 54.7025 167.514 54.6778 117.895 54.7435C73.3261 54.8092 44.4446 53.0759 34.4253 60.2967C24.406 67.5176 18.2859 76.9646 18.8453 88.6379C19.4046 100.311 24.406 119.197 24.406 119.197C24.406 119.197 15.5055 110.309 8.26662 114.753C1.03596 119.197 3.81635 132.538 10.4959 152.541C17.1754 172.544 16.7805 170.844 16.7805 170.844C16.7805 170.844 14.4279 174.212 14.9461 180.882C15.5384 188.505 27.9597 231.65 51.8233 238.772C69.2871 243.988 89.4326 244.687 121.711 243.578C153.982 242.469 174.037 243.101 184.854 240.201C204.835 234.853 226.56 185.088 226.56 180.644C226.56 176.2 221.912 172.454 221.912 172.454C221.912 172.454 239.014 128.406 230.739 117.735L230.747 117.743ZM217.816 173.587C224.265 176.298 223.204 183.642 218.614 191.381C213.777 199.53 199.645 229.826 186.532 235.124C173.782 240.275 67.2553 240.152 54.8505 236.381C41.3105 232.266 26.7669 207.186 21.2802 192.654C17.3893 182.328 15.1189 175.46 22.9912 171.583C20.8277 166.909 0.822085 129.408 9.00696 118.039C15.7111 108.723 37.9872 142.962 37.0247 139.734C34.9518 132.776 32.3935 125.982 30.0737 119.098C27.9679 112.855 25.9278 106.628 24.9243 100.106C23.7068 92.1538 22.876 82.7725 26.9396 75.4284C29.1689 71.4114 36.0211 62.0301 46.427 59.5903C54.0937 57.7912 158.556 57.0765 168.723 58.1116C177.401 58.9988 190.333 59.5821 198.633 62.564C210.635 66.8768 212.247 75.8885 213.44 88.2025C214.172 95.7683 211.186 105.749 208.348 112.781C206.908 116.363 205.115 119.887 203.025 123.288C205.567 122.655 208.463 117.644 215.323 116.461C227.226 114.416 229.801 121.045 227.605 134.575C225.737 146.059 221.123 162.678 217.808 173.587H217.816Z" fill="#0B53A8"/>
<path d="M89.0377 73.9333C81.2148 73.2022 73.4083 72.8736 65.791 73.4815C70.2495 73.9169 74.782 73.958 79.1912 73.9908C82.4816 74.0155 85.7638 73.9744 89.0377 73.9333Z" fill="#811618"/>
<path d="M75.6869 256.475C75.6869 256.475 76.057 249.952 73.1039 246.601L70.1426 243.249C70.1426 243.249 64.1376 242.411 61.7027 244.029C59.2678 245.648 56.3393 249.624 51.7574 254.364C47.1756 259.104 37.7815 264.419 39.2375 268.041C40.6852 271.672 75.6951 256.467 75.6951 256.467L75.6869 256.475Z" fill="#CEE4FF"/>
<path d="M65.8321 254.898C63.7756 257.387 60.7073 258.931 57.7295 260.016C54.6118 261.149 51.2967 261.798 48.0639 262.488C46.9123 262.735 45.7524 262.965 44.6008 263.195C44.1566 263.285 43.7041 263.392 43.2517 263.466C43.1283 263.49 43.0296 263.515 42.9967 263.515C43.0789 263.507 43.1612 263.474 43.2517 263.466C43.3915 263.433 43.5643 263.392 43.7535 263.351C42.8651 263.548 41.9767 263.646 41.0965 263.646C39.5829 265.257 38.7192 266.76 39.2374 268.041C40.6852 271.672 75.695 256.467 75.695 256.467C75.695 256.467 76.0652 249.944 73.1121 246.593L70.1507 243.241C70.1507 243.241 69.0649 243.093 67.6253 243.044C69.3117 246.888 68.5055 251.661 65.8403 254.889L65.8321 254.898Z" fill="#3274F6"/>
<path d="M39.0895 267.417C39.0895 267.417 50.4907 264.764 59.4406 261.445C68.3987 258.126 75.4649 255.3 75.4649 255.3L76.1394 257.296C76.1394 257.296 62.4102 262.71 57.2854 264.566C52.1606 266.423 39.1717 269.273 39.1717 269.273L39.0895 267.409V267.417Z" fill="black"/>
<path d="M53.1805 253.041C54.4391 254.101 56.7506 257.132 58.6097 256.302C57.2935 255.275 54.8093 252.827 53.2464 252.573L53.1805 253.041Z" fill="#091F3E"/>
<path d="M54.8423 251.373C54.7354 252.688 58.5111 255.735 59.6134 254.437C58.5934 253.09 56.504 251.571 55.0233 250.733L54.8341 251.373H54.8423Z" fill="#091F3E"/>
<path d="M56.4543 249.402C56.2487 251.258 59.9175 253.682 61.5298 252.417C60.156 251.365 57.9926 250.059 56.9232 249.468L56.4543 249.402Z" fill="#091F3E"/>
<path d="M100.785 256.13C100.785 256.13 100.414 249.607 103.368 246.256L106.329 242.904C106.329 242.904 112.334 242.066 114.769 243.684C117.204 245.303 120.132 249.279 124.714 254.019C129.296 258.759 138.69 264.074 137.234 267.696C135.786 271.327 100.776 256.122 100.776 256.122L100.785 256.13Z" fill="#CEE4FF"/>
<path d="M110.639 254.561C112.696 257.05 115.772 258.594 118.742 259.679C121.86 260.812 125.175 261.461 128.407 262.151C129.559 262.398 130.719 262.628 131.871 262.858C132.315 262.948 132.767 263.055 133.22 263.129C133.343 263.153 133.442 263.178 133.475 263.178C133.392 263.17 133.31 263.137 133.22 263.129C133.08 263.096 132.907 263.055 132.718 263.014C133.606 263.211 134.495 263.31 135.375 263.31C136.888 264.92 137.752 266.423 137.234 267.704C135.786 271.335 100.776 256.13 100.776 256.13C100.776 256.13 100.406 249.607 103.359 246.256L106.321 242.904C106.321 242.904 107.407 242.756 108.846 242.707C107.16 246.551 107.966 251.324 110.631 254.553L110.639 254.561Z" fill="#3274F6"/>
<path d="M137.382 267.08C137.382 267.08 125.981 264.427 117.031 261.108C108.081 257.789 101.007 254.963 101.007 254.963L100.332 256.959C100.332 256.959 114.061 262.373 119.186 264.23C124.311 266.086 137.382 268.805 137.382 268.805V267.08Z" fill="black"/>
<path d="M123.299 252.704C122.041 253.764 119.729 256.795 117.87 255.965C119.186 254.939 121.67 252.491 123.233 252.236L123.299 252.704Z" fill="#091F3E"/>
<path d="M121.629 251.028C121.736 252.343 117.961 255.39 116.858 254.093C117.878 252.745 119.968 251.226 121.44 250.388L121.629 251.028Z" fill="#091F3E"/>
<path d="M120.017 249.065C120.222 250.922 116.554 253.345 114.941 252.08C116.315 251.028 118.479 249.722 119.548 249.131L120.017 249.065Z" fill="#091F3E"/>
<path d="M160.3 247.291C160.3 247.291 161.698 242.354 164.758 240.62L167.818 238.887C167.818 238.887 172.499 239.799 173.889 241.622C175.279 243.446 176.439 247.151 178.627 251.85C180.815 256.549 186.434 262.891 184.418 265.215C182.403 267.54 160.292 247.291 160.292 247.291H160.3Z" fill="#F7DA68"/>
<path d="M168.032 248.646C168.921 251.02 170.804 252.959 172.738 254.52C174.761 256.163 177.056 257.485 179.285 258.824C180.083 259.301 180.881 259.769 181.679 260.237C181.984 260.418 182.296 260.615 182.609 260.788C182.691 260.837 182.757 260.878 182.782 260.886C182.724 260.853 182.666 260.812 182.609 260.788C182.51 260.73 182.395 260.656 182.263 260.574C182.872 260.952 183.514 261.248 184.163 261.469C184.879 263.055 185.134 264.386 184.418 265.215C182.403 267.54 160.292 247.291 160.292 247.291C160.292 247.291 161.69 242.354 164.75 240.62L167.81 238.887C167.81 238.887 168.657 239.051 169.735 239.38C167.489 241.803 166.864 245.557 168.016 248.638L168.032 248.646Z" fill="#E5C64C"/>
<path d="M184.278 264.739C184.278 264.739 176.9 259.9 171.1 255.144C165.301 250.388 160.769 246.477 160.769 246.477L159.757 247.792C159.757 247.792 168.575 255.325 171.907 258.019C175.238 260.705 184.163 266.152 184.163 266.152L184.287 264.739H184.278Z" fill="black"/>
<path d="M177.912 250.503C176.702 250.971 174.21 252.63 173.042 251.538C174.284 251.111 176.76 249.928 177.986 250.141L177.912 250.503Z" fill="black"/>
<path d="M177.105 248.835C176.85 249.845 173.256 251.135 172.77 249.895C173.873 249.155 175.822 248.556 177.13 248.309L177.105 248.835Z" fill="black"/>
<path d="M176.414 246.962C176.094 248.4 172.737 249.254 171.865 247.907C173.157 247.471 175.098 247.061 176.052 246.896L176.414 246.97V246.962Z" fill="black"/>
<path d="M130.052 244.218C130.052 244.218 132.463 239.684 135.827 238.64L139.183 237.597C139.183 237.597 143.568 239.478 144.538 241.548C145.509 243.619 145.863 247.488 147.006 252.54C148.15 257.592 152.296 264.977 149.844 266.825C147.385 268.674 130.052 244.218 130.052 244.218Z" fill="#F7DA68"/>
<path d="M137.324 247.167C137.686 249.673 139.126 251.965 140.689 253.904C142.318 255.933 144.284 257.715 146.176 259.49C146.85 260.122 147.533 260.747 148.216 261.371C148.479 261.609 148.742 261.872 149.013 262.102C149.079 262.168 149.137 262.225 149.162 262.242C149.112 262.201 149.063 262.151 149.013 262.102C148.931 262.028 148.833 261.929 148.726 261.823C149.244 262.316 149.803 262.743 150.395 263.104C150.757 264.805 150.725 266.16 149.853 266.817C147.393 268.666 130.061 244.21 130.061 244.21C130.061 244.21 132.471 239.675 135.835 238.632L139.192 237.589C139.192 237.589 139.981 237.934 140.968 238.476C138.262 240.374 136.855 243.906 137.333 247.159L137.324 247.167Z" fill="#E5C64C"/>
<path d="M149.803 266.324C149.803 266.324 143.617 260.04 138.953 254.166C134.289 248.293 130.686 243.52 130.686 243.52L129.419 244.588C129.419 244.588 136.444 253.813 139.134 257.14C141.824 260.475 149.392 267.672 149.392 267.672L149.811 266.316L149.803 266.324Z" fill="black"/>
<path d="M146.595 251.069C145.312 251.267 142.523 252.367 141.61 251.053C142.918 250.897 145.583 250.264 146.735 250.724L146.587 251.061L146.595 251.069Z" fill="black"/>
<path d="M146.159 249.27C145.69 250.199 141.906 250.708 141.701 249.394C142.934 248.901 144.966 248.728 146.299 248.769L146.159 249.279V249.27Z" fill="black"/>
<path d="M145.879 247.291C145.262 248.621 141.799 248.761 141.232 247.25C142.581 247.102 144.571 247.11 145.534 247.143L145.871 247.291H145.879Z" fill="black"/>
<path d="M19.9806 109.446C20.5153 106.768 31.2502 95.5136 37.1483 90.6915C43.0463 85.8694 55.9447 75.067 62.9039 70.8692C66.3259 68.7991 72.0841 66.0882 78.4675 67.115C92.9123 69.4398 95.2567 69.5137 101.763 68.5115C107.818 67.5833 113.346 64.971 117.64 66.0389C121.934 67.1068 126.762 69.2509 126.762 69.2509C126.762 69.2509 160.563 69.7848 166.469 72.4629C172.375 75.1409 164.857 84.2511 164.857 84.2511C164.857 84.2511 134.273 80.497 126.762 83.1832C119.252 85.8612 119.046 93.1806 118.141 100.106C117.064 108.337 115.229 121.218 113.839 131.232C112.77 138.962 109.356 143.924 109.356 143.924L72.5612 140.835C72.5612 140.835 72.4296 109.89 71.4918 87.4713C71.3108 83.1586 58.0752 96.5816 52.7118 99.7936C47.3485 103.006 33.3972 117.48 32.8625 115.87C32.3278 114.26 19.9888 109.438 19.9888 109.438L19.9806 109.446Z" fill="#F7DA68"/>
<path d="M152.304 70.9266C140.623 69.4808 131.525 74.1715 119.745 73.81C120.009 79.3879 119.063 85.3026 118.372 89.7796C116.603 101.28 114.357 113.619 110.162 124.537C105.761 135.988 92.8628 146.7 82.934 135.101C79.0431 132.119 76.8633 126.278 75.7527 120.971C71.6233 107.08 72.8243 90.6668 71.8372 76.7263C67.8722 81.4909 62.2292 85.3601 57.672 88.7117C46.9124 96.6144 36.3749 104.583 24.7351 111.179C24.6446 111.229 24.5541 111.253 24.4636 111.294C28.0502 112.83 32.5333 114.917 32.8459 115.87C33.3806 117.48 47.3319 103.014 52.6953 99.7935C58.0586 96.5815 71.2942 83.1503 71.4752 87.4713C72.413 109.89 72.3143 143.053 72.3143 143.053L110.105 144.507C110.105 144.507 112.745 138.962 113.814 131.232C115.205 121.218 117.039 108.329 118.117 100.106C119.022 93.1806 119.227 85.8612 126.738 83.1831C134.248 80.5051 152.682 72.89 152.682 72.89C152.682 72.89 156.228 71.4113 152.287 70.9266H152.304Z" fill="#E6C64C"/>
<path d="M70.4142 157.905C70.4142 157.905 77.3898 162.193 81.1491 168.083L84.9084 173.982L96.9924 174.614C96.9924 174.614 98.325 169.16 102.619 165.405C106.913 161.651 113.354 158.973 113.354 158.973L110.138 144.507C110.138 144.507 72.5776 141.295 72.5776 142.897C72.5776 144.499 70.4306 157.897 70.4306 157.897L70.4142 157.905Z" fill="#1A365F"/>
<path d="M99.3697 158.521C88.1823 162.76 80.343 157.856 71.3602 151.826C70.8666 155.055 70.4142 157.913 70.4142 157.913C70.4142 157.913 77.3898 162.202 81.1491 168.092L84.9084 173.99L96.9924 174.622C96.9924 174.622 98.325 169.168 102.619 165.414C106.913 161.659 113.354 158.981 113.354 158.981L111.635 151.251C108.073 154.455 103.697 156.895 99.3862 158.53L99.3697 158.521Z" fill="#091F3E"/>
<path d="M47.8749 175.592C47.8749 175.592 52.1689 168.626 58.0669 164.337C63.9732 160.049 70.4059 157.905 70.4059 157.905C70.4059 157.905 78.9939 156.295 83.8226 160.583C88.6512 164.871 87.5818 173.439 84.8919 173.982C82.2103 174.516 83.2796 175.592 72.5529 179.338C63.2164 182.599 57.5323 184.694 54.8423 183.092C52.1607 181.482 47.8667 175.592 47.8667 175.592H47.8749Z" fill="#1A365F"/>
<path d="M98.843 76.6606C103.458 75.4859 105.901 57.2079 105.514 57.4379C105.136 57.6597 102.471 61.2743 97.6091 61.7343C92.7475 62.1943 88.7414 60.6171 89.1363 61.5864C89.5311 62.5476 94.4667 77.7696 98.8347 76.6606H98.843Z" fill="#F69147"/>
<path d="M72.1825 41.6327C72.1661 41.8298 69.5009 41.2712 67.5266 39.8747C70.0438 49.4532 75.1274 51.8437 75.621 50.3075C79.9643 58.1198 92.3198 65.2421 97.4857 63.8455C103.622 62.1944 113.502 51.5397 113.428 42.1174C116.693 43.3167 117.417 31.7585 115.361 28.4561C114.612 29.7294 113.082 30.9781 112.465 32.3499C113.37 16.8979 105.399 2.93268 87.9106 5.15068C69.5749 7.47548 63.3314 25.7206 72.1743 41.6245L72.1825 41.6327Z" fill="#FAB365"/>
<path d="M87.9189 5.15894C69.5831 7.48373 63.3396 25.7288 72.1825 41.6327C72.1661 41.8299 69.5009 41.2713 67.5266 39.8748C70.0438 49.4532 75.1274 51.8437 75.621 50.3076C79.9643 58.1199 88.9553 65.3325 97.897 63.9524C104.453 62.942 113.362 51.2851 113.436 42.1174C116.702 43.3168 118.207 32.8511 116.151 29.5487C115.402 30.822 113.954 31.8571 113.345 33.2372C114.25 17.7851 105.407 2.94094 87.9189 5.15072V5.15894ZM101.755 59.4753C101.237 60.88 99.8054 62.8434 97.3212 63.2788C94.1048 63.8374 92.7969 61.6522 92.583 61.6194C84.6038 60.3132 74.0827 49.0836 77.4389 41.1316C78.4919 38.6425 80.8774 36.022 83.4028 35.1923C85.229 34.5926 87.2443 35.0773 88.0998 36.9749C88.8073 38.5522 88.1657 40.918 86.4546 41.5917C87.6063 43.5879 89.1034 45.1076 90.8226 46.7588C91.2751 46.7341 92.1635 45.7812 92.6159 45.7483C91.892 44.5243 91.6782 39.924 91.0941 36.1699C90.8802 34.8062 92.2704 34.3051 92.7393 35.5373C94.2364 39.464 95.8158 43.5961 95.6102 45.0008C95.9228 44.9515 97.8312 44.9844 97.8312 44.9844C98.3659 42.9553 99.0486 41.1152 99.1309 39.0122C98.769 38.9301 98.4152 38.8561 98.0615 38.7493C96.2189 38.1825 95.314 35.9316 95.9474 34.1983C96.6302 32.3336 98.6703 31.5203 100.505 32.0871C100.612 32.12 101.039 32.235 101.072 32.2596C101.278 32.3007 101.475 32.3418 101.681 32.3828C102.355 32.5143 103.03 32.6539 103.688 32.8264C104.93 33.155 106.082 33.8451 107.118 34.6091C115.821 40.9673 109.2 56.0169 101.747 59.4835L101.755 59.4753ZM101.039 22.5333C101.039 22.6976 101.023 22.8537 101.006 23.0015C101.204 25.0799 99.1309 26.8543 97.0497 27.4786C94.4092 28.2672 91.6452 28.2754 88.9389 28.6862C87.0469 28.9737 85.2372 29.6555 83.3205 29.8609C79.7669 30.247 77.7104 28.7026 78.2615 25.507C77.7351 23.8476 78.6728 21.7857 80.3345 20.611C83.0326 18.6887 86.5945 17.9987 89.852 18.0808C90.2715 18.0891 90.7322 18.1055 91.2093 18.1301C95.9557 17.3333 100.924 18.5327 101.031 22.5333H101.039Z" fill="#F69147"/>
<path d="M81.4533 18.3273C81.8482 20.9231 84.4394 23.7819 86.9483 24.5048C90.6911 25.5809 96.5316 23.3958 99.5917 25.8931C98.44 24.2008 98.9665 19.9374 96.4658 19.3048C101.311 21.375 103.137 27.8729 109.627 27.0596C109.833 25.1538 108.5 23.1001 107.513 21.531C108.665 23.1822 110.154 24.168 110.672 26.271C111.149 28.185 110.039 31.6763 112.375 32.506C112.613 30.1648 116.685 24.2501 114.094 22.2129C115.032 22.829 116.348 23.3712 117.475 22.9522C119.861 22.0732 119.564 19.1405 121.333 17.9001C119.161 15.5753 118.347 16.405 115.953 17.6126C115.254 16.3968 117.023 15.3206 117.146 13.9898C117.467 10.5807 112.358 9.06094 113.008 5.70108C111.865 5.97217 110.993 6.57185 110.631 7.74657C110.384 8.52698 111.404 11.5747 109.775 10.6793C108.426 9.93993 108.402 5.52857 107.308 4.16491C103.68 -0.369667 98.1686 0.476459 93.1671 0.492889C93.1425 0.328593 93.126 0.164296 93.126 0C92.7394 2.07013 94.6972 3.80346 92.1718 3.62273C91.1765 3.5488 89.7863 2.10299 88.8074 1.7169C86.3149 0.739333 83.6085 0.977563 81.0749 1.6101C77.2005 2.57124 73.7209 4.81388 70.1097 6.32541C70.6032 7.95194 71.0803 9.38953 72.6515 10.2767C70.9652 11.6157 68.8675 12.6426 67.4362 14.2773C65.462 16.5282 63.3232 21.835 64.7381 24.7595C65.1165 24.1105 65.6841 23.8887 66.3997 24.168C63.4466 30.2634 68.0203 40.918 74.4448 43.2099C73.8854 42.1831 74.4119 41.7559 74.6669 40.7044C75.2427 38.3303 75.4812 36.9585 74.7574 34.5515C74.017 32.0706 71.0721 26.4846 74.5352 24.6855C76.2216 26.156 75.6129 27.7168 75.8185 29.6391C78.3192 27.7332 79.405 26.7146 79.1089 23.593C78.9444 21.8514 79.3557 18.8448 81.4698 18.319L81.4533 18.3273Z" fill="#AB4825"/>
<path d="M81.4533 18.3273C81.8482 20.9231 84.4394 23.7819 86.9483 24.5048C90.6911 25.5809 96.5316 23.3958 99.5917 25.8931C98.44 24.2008 98.9665 19.9374 96.4658 19.3048C101.311 21.375 103.137 27.8729 109.627 27.0596C109.833 25.1538 108.5 23.1001 107.513 21.531C108.665 23.1822 110.154 24.168 110.672 26.271C111.149 28.185 111.001 32.4157 113.337 33.2454C113.576 30.9041 116.685 24.2501 114.094 22.2129C115.032 22.829 116.348 23.3712 117.475 22.9522C119.861 22.0732 119.564 19.1405 121.333 17.9001C119.161 15.5753 118.347 16.405 115.953 17.6126C115.254 16.3968 117.023 15.3206 117.146 13.9898C117.467 10.5807 112.358 9.06094 113.008 5.70108C111.865 5.97217 110.993 6.57185 110.631 7.74657C110.384 8.52698 111.404 11.5747 109.775 10.6793C108.426 9.93993 108.402 5.52857 107.308 4.16491C103.68 -0.369667 98.1686 0.476459 93.1671 0.492889C93.1425 0.328593 93.126 0.164296 93.126 0C92.7394 2.07013 94.6972 3.80346 92.1718 3.62273C91.1765 3.5488 89.7863 2.10299 88.8074 1.7169C86.3149 0.739333 83.6085 0.977563 81.0749 1.6101C77.2005 2.57124 73.7209 4.81388 70.1097 6.32541C70.6032 7.95194 71.0803 9.38953 72.6515 10.2767C70.9652 11.6157 68.8675 12.6426 67.4362 14.2773C65.462 16.5282 63.3232 21.835 64.7381 24.7595C65.1165 24.1105 65.6841 23.8887 66.3997 24.168C63.4466 30.2634 68.0203 40.918 74.4448 43.2099C73.8854 42.1831 74.4119 41.7559 74.6669 40.7044C75.2427 38.3303 75.4812 36.9585 74.7574 34.5515C74.017 32.0706 71.0721 26.4846 74.5352 24.6855C76.2216 26.156 75.6129 27.7168 75.8185 29.6391C78.3192 27.7332 79.405 26.7146 79.1089 23.593C78.9444 21.8514 79.3557 18.8448 81.4698 18.319L81.4533 18.3273Z" fill="#85301B"/>
<path d="M79.5366 37.7882C82.0949 40.113 85.6732 38.1908 87.302 36.0221C85.8624 34.1902 80.9021 33.8451 79.5366 37.7882Z" fill="#FCC68F"/>
<path d="M96.9181 33.9764C97.7407 34.9868 99.353 35.4797 100.62 35.2168C102.265 34.8718 103.055 34.075 104.075 32.7031C101.599 30.3947 99.279 31.0109 96.7618 32.9249L96.9181 33.9682V33.9764Z" fill="#FCC68F"/>
<path d="M89.0706 51.8437C89.0706 51.8437 92.4926 53.651 95.5774 52.6899C98.6621 51.7369 101.78 49.0096 101.533 49.1082C101.294 49.2068 97.3048 49.3629 95.0262 49.7982C92.7476 50.2336 89.0624 51.8437 89.0624 51.8437H89.0706Z" fill="#B63A26"/>
<path d="M92.3691 50.743C92.3691 50.743 92.7722 51.4166 95.4457 50.7594C98.1191 50.1022 98.3741 49.2561 98.3741 49.2561C98.3741 49.2561 96.3588 49.5765 95.2565 49.7983C94.1542 50.0201 92.3691 50.743 92.3691 50.743Z" fill="white"/>
<path d="M95.166 49.2891C92.0484 50.0448 88.6922 51.8521 88.5359 51.811C88.5359 51.811 91.7687 54.029 95.7501 53.0597C99.7315 52.0903 101.952 48.9441 101.952 48.9441C101.952 48.9441 98.2755 48.5333 95.1578 49.2891H95.166ZM95.454 52.3368C92.1882 52.9447 89.268 51.8932 89.268 51.8932C89.3667 51.8357 93.2329 50.4638 95.1578 50.0202C97.0827 49.5766 101.286 49.2069 101.286 49.2069C101.286 49.2069 98.5387 51.7617 95.4457 52.3368H95.454Z" fill="#F27448"/>
<path d="M92.2539 53.6509C92.2539 53.6509 92.4184 56.9369 96.0132 56.1072C99.608 55.2857 98.7854 52.0655 98.6537 52.1969C98.5139 52.3283 97.1648 53.232 95.6183 53.6099C94.0636 53.9877 92.2621 53.6509 92.2621 53.6509H92.2539Z" fill="#F69147"/>
<path d="M89.9673 47.1366L93.6196 47.2681L95.2319 46.8409L98.5881 45.0583L95.7173 44.9351C95.7173 44.9351 95.3142 45.658 94.0392 46.0851C92.7641 46.5123 92.4433 45.7155 92.213 45.8715C91.9827 46.0276 89.9673 47.1366 89.9673 47.1366Z" fill="#E47528"/>
<path d="M96.4739 33.8532C96.4739 33.8532 97.9381 34.4282 99.863 34.2147C101.788 34.0011 104.083 32.7031 104.083 32.7031C104.091 32.9003 104.198 33.4096 104.198 33.4096C104.198 33.4096 101.122 34.6911 100.069 34.9129C98.4317 35.2579 96.3176 34.4529 96.3176 34.4529L96.4739 33.8532Z" fill="#AB4825"/>
<path d="M79.627 37.4102C79.627 37.4102 81.0912 37.9852 83.0161 37.7717C84.941 37.5581 87.2361 36.2601 87.2361 36.2601C87.2443 36.4573 87.3512 36.9666 87.3512 36.9666C87.3512 36.9666 84.2747 38.2481 83.2218 38.4699C81.5848 38.8149 79.4707 38.0099 79.4707 38.0099L79.627 37.4102Z" fill="#AB4825"/>
<path d="M69.6407 33.3931C69.1554 31.2244 67.6994 29.376 67.576 26.928C67.4197 23.7817 68.5302 19.8222 70.1836 17.2017C68.9991 17.5221 68.0942 18.3271 67.2305 19.165C67.2222 14.3676 75.3907 8.31325 79.7998 9.82477C78.6153 9.08544 76.9536 7.99287 75.547 7.7875C79.298 3.83617 85.4428 4.69051 89.7944 6.77708C91.1846 7.44248 94.3187 9.43868 95.6842 7.25354C96.1449 6.5142 96.0873 5.8488 95.4457 5.19162C96.3341 5.42985 97.1978 5.15876 98.0698 5.28198C100.052 5.55307 101.574 6.43205 103.178 7.73C106 9.99729 104.651 16.1255 109.019 16.487C109.043 15.9777 109.339 15.0987 109.175 14.4744C111.486 15.5998 112.268 17.0785 112.449 19.5183C112.482 19.9947 112.062 20.3397 112.095 20.8408C112.169 21.9827 112.951 22.6645 112.728 23.9214C110.976 20.9805 108.443 19.814 105.424 18.3353C105.514 19.4279 106.123 20.5698 106.345 21.5062C101.788 20.504 96.77 17.4728 94.0061 13.6611C94.5902 15.3944 93.4879 17.1524 93.9568 18.8857C94.3516 20.3644 95.7171 21.5062 96.9099 22.3606C94.0308 22.4017 89.2104 23.4121 86.685 21.9498C83.6578 20.1919 83.8717 16.5445 82.0537 13.9815C80.7047 15.7641 78.0806 16.2241 77.3978 18.6475C76.8631 20.5533 78.607 22.8042 77.2662 24.4964C76.057 22.9274 75.2673 20.504 73.1532 21.6788C71.3764 22.6645 71.5656 24.9729 71.5244 26.5994C71.4751 28.3081 70.1507 31.2326 70.7923 32.4977C71.6314 32.4812 72.4787 32.473 69.6489 33.3767L69.6407 33.3931Z" fill="#AB4825"/>
<path d="M76.2793 35.6359L77.9739 42.3474C77.9739 42.3474 90.3376 40.688 90.9381 39.7844C91.6702 38.6836 90.535 36.7121 92.0815 36.4163C93.628 36.1206 93.5375 39.3572 94.8701 39.3326C96.2027 39.3161 107.9 37.131 107.9 37.131L107.11 30.3209L76.2711 35.6277L76.2793 35.6359Z" fill="white"/>
<path d="M80.7473 36.4218L87.1418 35.4126C88.1575 35.2523 89.1078 35.9424 89.2683 36.9566L89.3569 37.5165C89.5174 38.5308 88.8264 39.4798 87.8108 39.6401L81.4163 40.6492C80.4006 40.8095 79.4503 40.1195 79.2898 39.1052L79.2012 38.5453C79.0407 37.5311 79.7317 36.582 80.7473 36.4218Z" fill="#EB7886"/>
<path d="M104.364 32.3104L95.7755 33.6658C95.3672 33.7302 95.0884 34.1131 95.153 34.5209L95.5883 37.2715C95.6528 37.6793 96.0361 37.9577 96.4445 37.8932L105.033 36.5379C105.441 36.4735 105.72 36.0906 105.655 35.6828L105.22 32.9322C105.156 32.5244 104.772 32.246 104.364 32.3104Z" fill="#3274F6"/>
<path d="M76.2792 35.6359L70.7513 41.2712C70.8994 41.3534 71.0475 41.4273 71.1955 41.5095C71.6973 41.8298 72.2403 42.0598 72.7914 42.2899C74.4777 40.8276 76.8468 38.7493 76.8962 38.6343C76.9702 38.4453 76.2792 35.6441 76.2792 35.6441V35.6359Z" fill="#CBE6F8"/>
<g opacity="0.1">
<path d="M136.666 60.1981C136.666 62.2765 134.98 63.9523 132.907 63.9523C130.834 63.9523 129.148 62.2683 129.148 60.1981C129.148 58.128 130.834 56.444 132.907 56.444C134.98 56.444 136.666 58.128 136.666 60.1981Z" fill="#EC2024"/>
</g>
<g opacity="0.1">
<path d="M152.23 55.1872C152.23 57.2655 150.543 58.9413 148.47 58.9413C146.398 58.9413 144.711 57.2573 144.711 55.1872C144.711 53.117 146.398 51.433 148.47 51.433C150.543 51.433 152.23 53.117 152.23 55.1872Z" fill="#EC2024"/>
</g>
<path d="M96.1696 173.448C96.1696 170.77 96.441 165.036 99.9288 161.659C103.153 158.538 106.37 155.227 113.345 158.981C120.321 162.736 130.513 171.304 130.513 171.304L125.684 179.88C125.684 179.88 115.492 181.49 108.517 179.88C101.541 178.27 96.1778 173.448 96.1778 173.448H96.1696Z" fill="#1A365F"/>
<path d="M55.3934 180.381C54.0444 180.677 52.8681 180.603 51.8234 180.299C51.7987 180.299 51.774 180.307 51.7411 180.307C52.8105 181.465 53.921 182.533 54.8505 183.092C57.5322 184.702 63.2164 182.607 72.5611 179.338C83.296 175.583 82.2184 174.516 84.9001 173.982C86.825 173.595 87.9026 169.086 86.5864 164.986C78.3028 173.045 65.9227 178.056 55.3934 180.373V180.381Z" fill="#091F3E"/>
<path d="M98.3004 166.03C98.0043 165.841 97.7739 165.619 97.5189 165.414C96.3262 168.371 96.1781 171.616 96.1781 173.448C96.1781 173.448 101.541 178.27 108.517 179.88C115.493 181.49 125.685 179.88 125.685 179.88L127.758 176.208C117.377 174.959 106.568 171.32 98.3086 166.038L98.3004 166.03Z" fill="#091F3E"/>
<path d="M74.8478 243.027C73.6962 232.824 71.6643 216.502 69.8793 210.423C67.1976 201.312 61.2255 184.505 59.1444 178.812C56.9974 172.914 49.487 169.702 47.8747 175.6C46.6079 180.25 53.6741 225.546 56.7259 244.489C62.8296 244.358 68.7935 243.044 74.8478 243.035V243.027Z" fill="#1A365F"/>
<path d="M66.918 243.586C69.5586 243.282 72.1909 243.035 74.8479 243.027C73.6963 232.824 71.6644 216.501 69.8794 210.423C67.1977 201.312 61.2256 184.505 59.1445 178.812C59.1033 178.705 59.054 178.607 59.0128 178.5C58.873 178.631 58.7332 178.754 58.5851 178.886C62.3361 194.009 63.0024 209.42 64.7628 224.897C65.4702 231.124 66.4738 237.359 66.9262 243.586H66.918Z" fill="#091F3E"/>
<path d="M120.305 246.494C120.831 246.617 121.457 246.732 122.131 246.847L133.187 177.711C133.187 177.711 134.799 173.423 130.505 171.813C126.211 170.203 123.529 172.347 121.382 177.711C119.235 183.067 112.795 196.466 107.966 215.22C105.251 225.768 104.059 235.798 103.54 242.567C109.282 243.019 114.703 245.188 120.297 246.494H120.305Z" fill="#1A365F"/>
<path d="M113.913 244.744C113.263 222.375 114.744 200.039 123.085 179.05C122.732 178.015 122.427 176.955 122.213 175.871C121.934 176.43 121.654 177.046 121.391 177.703C119.244 183.059 112.803 196.457 107.974 215.212C105.26 225.76 104.346 235.264 103.828 242.033C103.828 242.033 110.508 243.75 113.913 244.736V244.744Z" fill="#091F3E"/>
<path d="M19.9804 109.446C19.9804 109.446 16.7475 113.586 16.5748 118.835C16.402 124.093 24.7514 134.575 24.7514 134.575C24.7514 134.575 27.6388 131.667 29.0372 129.367C30.4356 127.067 32.1877 124.085 32.7142 121.456C33.2407 118.827 33.4134 116.026 33.4134 116.026C33.4134 116.026 30.7811 113.57 27.2768 112.173C23.7725 110.769 19.9804 109.438 19.9804 109.438V109.446Z" fill="#F7DA68"/>
<path d="M27.2687 112.182C26.6353 111.927 26.0019 111.68 25.3767 111.442C26.3803 112.814 27.2193 114.309 27.8774 115.747C29.7282 119.78 30.1642 124.652 27.4085 128.406C26.1993 130.057 24.4225 131.092 22.514 131.569C23.7726 133.368 24.7433 134.583 24.7433 134.583C24.7433 134.583 27.6306 131.675 29.029 129.375C30.4275 127.075 32.1796 124.093 32.7061 121.464C33.2325 118.836 33.4053 116.034 33.4053 116.034C33.4053 116.034 30.7729 113.578 27.2687 112.182Z" fill="#E6C64C"/>
<path d="M132.126 167.016C129.427 162.473 133.104 153.042 140.516 152.032C148.092 151.005 153.02 155.761 156.845 161.101C156.647 156.928 158.983 150.356 165.235 150.602C173.058 150.906 179.565 156.714 181.72 163.877C183.365 169.349 180.881 172.24 180.881 177.12C180.881 181.17 179.326 194.42 177.994 205.732C177.007 214.086 173.025 237.844 172.663 238.78L167.777 238.115C167.777 238.115 163.401 212.008 163.557 204.845C163.779 194.864 169.99 179.576 169.998 179.338C169.208 177.81 166.403 177.3 162.767 171.649C164.47 176.372 164.692 176.323 164.446 179.116C164.446 179.116 159.189 197.427 154.451 208.615C149.45 220.428 144.456 236.784 144.456 236.784L137.349 236.34C137.349 236.34 140.212 215.475 140.681 206.619C141.503 191.2 152.23 181.112 152.008 180.669C152.008 180.669 137.859 176.676 132.126 167.016Z" fill="#3A3A3A"/>
<path opacity="0.6" d="M154.92 182.887C154.936 182.394 154.961 181.901 154.969 181.408C154.977 180.299 155.306 179.436 155.816 178.796C146.546 175.477 138.377 168.88 131.385 161.701C131.056 163.68 131.278 165.586 132.125 167.015C137.859 176.676 152.008 180.669 152.008 180.669C152.23 181.112 141.503 191.2 140.68 206.619C140.212 215.475 137.349 236.34 137.349 236.34L144.456 236.784C144.456 236.784 146.036 231.617 148.306 224.996C146.546 210.661 152.041 196.885 154.92 182.895V182.887Z" fill="black"/>
<path opacity="0.6" d="M173.223 190.871C173.198 186.115 173.371 181.391 174.144 176.857C164.47 171.394 156.458 163.294 150.099 154.241C147.928 152.82 145.452 151.908 142.54 151.908C148.471 158.546 161.608 170.54 164.931 174.598C167.209 177.382 169.398 178.188 169.998 179.338C169.99 179.576 163.779 194.864 163.557 204.845C163.401 212.008 167.777 238.115 167.777 238.115L172.663 238.78C172.836 238.336 173.831 232.709 174.925 226.039C169.537 215.097 171.651 202.955 173.223 190.871Z" fill="black"/>
<path d="M133.031 159.014C133.031 159.014 135.128 150.389 137.004 146.889C138.871 143.39 138.871 141.763 138.871 141.763L166.19 139.43C166.19 139.43 168.756 144.096 170.862 148.524L172.96 152.952C172.96 152.952 168.057 163.68 157.552 164.609C147.048 165.545 133.039 159.014 133.039 159.014H133.031Z" fill="#3A3A3A"/>
<path d="M133.031 159.014C133.031 159.014 135.128 150.389 137.004 146.889C138.871 143.39 138.871 141.763 138.871 141.763L166.19 139.43C166.19 139.43 168.756 144.096 170.862 148.524L172.96 152.952C172.96 152.952 168.057 163.68 157.552 164.609C147.048 165.545 133.039 159.014 133.039 159.014H133.031Z" fill="#3A3A3A"/>
<path d="M138.945 236.39C139.068 237.137 138.336 238.427 138.377 239.454C138.435 240.916 139.331 242.403 140.565 243.224C141.207 243.651 143.757 244.596 144.415 243.577C144.777 243.027 144.127 240.834 144.07 240.177C143.979 239.084 143.864 237.77 143.716 236.685C142.137 236.603 140.483 236.587 138.937 236.39H138.945Z" fill="#EF984C"/>
<path d="M168.805 242.255C169.463 243.191 171.224 243.832 172.4 243.142C173.609 242.427 172.959 239.659 172.375 238.78L167.925 238.115C167.925 238.115 167.991 241.088 168.813 242.255H168.805Z" fill="#EF984C"/>
<path d="M197.843 104.197C194.627 98.2987 189.255 92.9426 182.28 85.9764C175.304 79.0103 159.741 73.1202 159.741 73.1202C159.741 73.1202 157.141 82.6412 149.713 84.5963C139.521 87.2744 133.261 77.9013 133.261 77.9013L123.513 84.391L123.892 85.7957C123.67 85.5493 123.513 85.4096 123.513 85.4096L112.326 118.688C110.417 136.383 118.405 143.143 118.405 143.143C118.405 143.143 127.363 132.078 129.872 123.847C130.843 120.676 131.328 117.349 131.558 114.449L139.019 142.305L166.807 139.044C167.111 138.371 172.088 95.0949 172.088 95.0949C172.088 95.0949 189.255 113.315 190.868 114.383C190.975 114.449 191.016 114.564 191.008 114.704C194.849 116.199 198.806 117.291 202.351 119.591C202.54 119.361 202.672 119.205 202.672 119.205C202.672 119.205 201.06 110.095 197.843 104.205V104.197Z" fill="#091F3E"/>
<path d="M201.52 114.137C201.076 114.005 200.648 113.808 200.245 113.537C189.477 106.086 176.776 99.8264 168.402 89.8043C168.945 93.1395 169.167 96.5158 168.336 99.7935C166.428 107.359 158.844 109.717 152.567 106.866C147.878 109.988 141.775 110.341 136.995 106.686C135.63 105.642 134.478 104.386 133.516 102.989C131.467 111.212 127.823 119.386 125.282 125.826C125.207 126.007 125.117 126.171 125.018 126.336C125.142 126.615 125.257 126.911 125.339 127.239C125.372 127.371 125.405 127.51 125.438 127.642C126.318 131.149 122.147 133.975 119.071 132.751C110.993 129.523 116.192 112.929 117.253 106.817C117.557 105.051 117.845 103.203 118.141 101.33L112.317 118.671C110.409 136.366 118.396 143.127 118.396 143.127C118.396 143.127 127.354 132.061 129.863 123.83C130.834 120.659 131.319 117.332 131.55 114.432L139.011 142.289L166.798 139.028C167.102 138.354 172.079 95.0782 172.079 95.0782C172.079 95.0782 189.247 113.299 190.859 114.367C190.966 114.432 191.007 114.547 190.999 114.687C194.841 116.182 198.797 117.275 202.343 119.575C202.532 119.345 202.664 119.189 202.664 119.189C202.664 119.189 202.277 117.02 201.512 114.128L201.52 114.137Z" fill="#1A365F"/>
<path d="M118.429 142.782C118.429 142.782 110.384 134.206 113.601 127.239C116.817 120.273 137.744 98.8408 137.744 98.8408L142.573 103.129C142.573 103.129 133.45 126.705 129.156 133.138C124.862 139.57 118.421 142.782 118.421 142.782H118.429Z" fill="#1A365F"/>
<path d="M140.985 101.527C139.43 106.957 136.288 112.1 133.581 117.168C131.245 121.547 129.23 126.278 126.211 130.254C123.792 133.442 119.836 136.481 115.887 133.491C113.798 131.914 113.296 129.589 113.576 127.231C113.535 127.305 113.477 127.404 113.444 127.478C110.228 134.444 118.273 143.02 118.273 143.02C118.273 143.02 124.714 139.808 129.008 133.376C133.302 126.944 142.581 103.121 142.581 103.121L140.985 101.527Z" fill="#091F3E"/>
<path d="M154.558 98.6684C153.859 98.463 153.184 99.3995 153.299 100.27C153.472 101.593 154.862 101.149 155.8 100.911C155.849 101.864 155.348 103.014 156.466 103.556C157.454 104.041 158.959 103.499 159.132 102.365C159.148 104.041 160.933 104.854 162.447 104.624C163.779 104.419 165.474 102.431 164.075 101.264C166.535 104.657 170.755 96.4832 165.54 97.9455C167.341 97.2225 165.663 94.3309 164.923 95.3496C164.117 93.1973 160.933 93.5012 161.081 95.9903C159.37 94.6759 156.598 94.5774 156.606 97.3375C155.142 95.9492 152.6 97.4936 154.015 99.2845C154.007 99.038 153.875 98.9641 154.558 98.6601V98.6684Z" fill="#F7DA68"/>
<path d="M165.49 99.8183C164.947 99.1119 165.071 98.1507 165.457 97.3621C165.416 97.2307 165.4 97.091 165.408 96.9514C165.4 96.9678 165.391 96.976 165.383 96.9924C164.939 97.436 164.347 97.5675 163.779 97.4689C164.125 97.7482 164.413 98.1179 164.585 98.504C164.881 99.1529 164.446 99.884 163.763 99.9991C163.442 100.057 163.138 100.015 162.841 99.9169C163.064 101.149 162.389 102.611 160.982 102.472C160.324 102.406 159.822 102.077 159.477 101.609C159.214 101.856 158.934 102.061 158.622 102.192C158.498 102.25 158.366 102.283 158.227 102.316C158.21 102.316 158.194 102.316 158.177 102.316C157.98 102.357 157.791 102.422 157.569 102.414C157.141 102.406 156.878 102.176 156.754 101.888C156.104 101.297 156.121 100.254 156.631 99.4733C156.055 99.654 155.405 99.654 154.747 99.3501C154.27 99.1283 153.867 98.7586 153.645 98.3068C153.653 98.4957 153.702 98.7011 153.809 98.9065C153.464 99.2104 153.225 99.7362 153.299 100.262C153.472 101.585 154.862 101.141 155.8 100.903C155.849 101.856 155.348 103.006 156.466 103.548C157.453 104.033 158.959 103.49 159.132 102.357C159.148 104.033 160.933 104.846 162.447 104.616C162.669 104.583 162.899 104.484 163.129 104.361C162.981 104.106 162.866 103.811 162.825 103.457C162.735 102.767 162.767 101.872 163.5 101.535C163.804 101.396 164.059 101.42 164.289 101.511C164.223 101.428 164.174 101.33 164.075 101.256C164.158 101.371 164.248 101.445 164.339 101.535C164.52 101.617 164.684 101.732 164.816 101.905C165.934 102.48 167.177 101.428 167.728 100.221C167.012 100.664 166.041 100.533 165.49 99.8101V99.8183Z" fill="#E6C64C"/>
<path d="M142.318 95.5713C142.614 95.2756 148.972 90.9135 150.955 89.5252C152.937 88.1369 156.713 85.9518 156.713 85.9518C156.713 85.9518 161.78 87.5372 163.269 88.6298C164.758 89.7224 165.424 93.2958 165.359 94.183C165.161 96.6639 163.672 95.177 163.672 95.177C163.672 95.177 163.87 97.4607 163.08 98.0522C162.282 98.6437 160.892 97.6579 160.892 97.6579C160.892 97.6579 160.892 99.4241 160.3 100.016C159.551 100.763 159.411 100.533 158.811 100.336C157.618 99.9416 158.613 97.6579 158.613 97.6579C158.613 97.6579 156.524 97.7565 156.03 97.0664C155.134 97.7647 153.744 96.7707 153.744 96.7707C153.744 96.7707 152.946 97.8633 150.568 99.0544C148.183 100.246 144.308 99.9498 144.308 99.9498C144.308 99.9498 143.313 103.022 143.017 102.825C142.721 102.628 138.427 99.0873 138.427 99.0873L142.318 95.5878V95.5713Z" fill="#FBBD56"/>
<path d="M164.602 94.7334C163.927 94.5034 163.763 93.4766 163.483 92.8851C163.162 92.1868 162.957 91.2503 162.504 90.6342C161.953 89.8867 160.95 89.5006 160.119 88.9995C159.165 88.6627 158.317 88.178 157.815 87.184C157.651 86.8554 157.676 86.5597 157.799 86.3132C157.157 86.0997 156.713 85.9518 156.713 85.9518C156.713 85.9518 152.937 88.1369 150.955 89.5252C148.972 90.9135 142.614 95.2756 142.318 95.5713L138.427 99.0708C138.427 99.0708 142.564 102.792 142.861 102.998C143.14 103.186 144.152 100.361 144.284 100.007C144.284 99.958 144.259 99.9088 144.267 99.8595C144.637 97.6415 147.13 96.6475 149.104 96.3764C150.593 96.1792 152.427 95.8917 153.711 96.8118C153.735 96.7871 153.744 96.7707 153.744 96.7707C153.744 96.7707 155.134 97.7647 156.03 97.0664C156.524 97.7647 158.613 97.6579 158.613 97.6579C158.613 97.6579 157.618 99.9416 158.811 100.336C158.967 100.385 159.099 100.426 159.222 100.443C158.811 99.5966 159.428 97.9618 159.321 96.9104C158.177 96.1382 157.388 96.1874 156.211 95.4645C155.027 94.7334 155.915 92.9097 155.915 92.9097C156.631 93.3451 158.087 94.1912 158.794 94.6431C159.37 95.0127 160.176 95.3824 160.637 95.8917C161.089 96.3928 160.892 97.1075 160.95 97.7647C161.106 97.8551 161.509 98.0029 161.78 98.1015C161.649 96.9186 161.427 95.3249 160.777 94.4541C160.16 93.6326 159.271 93.2055 158.399 92.7044C157.198 92.0225 158.186 90.0674 158.186 90.0674C159.321 90.7164 161.879 92.2115 162.636 93.3205C163.179 94.1091 163.483 95.2674 163.689 96.3928C163.738 95.7521 163.689 95.1935 163.689 95.1935C163.689 95.1935 165.005 96.4832 165.318 94.5281C165.301 94.6266 164.816 94.8156 164.618 94.7499L164.602 94.7334Z" fill="#F37B29"/>
<path d="M148.652 83.2488C152.518 81.6059 152.181 65.3159 151.884 65.5623C151.588 65.8088 149.746 69.3247 145.567 70.3844C141.388 71.4441 137.917 70.7541 137.917 70.7541C138.394 71.5427 144.983 84.8097 148.652 83.2488Z" fill="#FBBD56"/>
<path d="M120.65 56.2551C120.658 56.4276 118.256 56.2962 116.348 55.3515C119.844 63.3773 124.607 64.7821 124.829 63.3691C129.674 69.6042 143.938 72.2247 146.052 71.7893C149.211 69.3742 158.07 59.3439 156.729 51.1291C159.74 51.737 158.811 41.5506 156.573 38.9383C156.088 40.1541 154.92 41.4438 154.574 42.7335C153.274 29.1216 144.432 17.9987 129.46 22.295C113.765 26.7886 110.779 43.5632 120.65 56.2633V56.2551Z" fill="#FBBD56"/>
<path opacity="0.6" d="M129.46 22.2953C113.765 26.7888 110.779 43.5634 120.65 56.2635C120.658 56.436 118.256 56.3046 116.348 55.3599C119.844 63.3858 124.607 64.7905 124.829 63.3776C128.128 67.2467 135.58 71.3706 145.846 71.9292C150.017 68.5118 157.445 59.9684 156.729 51.1375C159.74 51.7454 158.811 41.559 156.573 38.9467C156.088 40.1625 154.92 41.4522 154.574 42.7419C153.274 29.13 144.432 18.0071 129.46 22.3035V22.2953ZM148.701 67.6C148.438 68.8979 148.1 70.4177 145.813 71.2884C143.124 72.3153 141.067 70.4834 140.878 70.4834C133.73 70.4177 123.315 62.4986 125.174 55.1052C125.759 52.7887 127.486 50.1763 129.575 49.1166C131.089 48.3444 132.915 48.5005 133.919 50.0449C134.75 51.3264 134.503 53.4787 133.104 54.3002C134.379 55.8856 135.893 57.0193 137.62 58.2187C138.015 58.1283 138.657 57.1836 139.052 57.0932C138.254 56.1239 137.448 52.1397 136.428 48.9359C136.057 47.7694 137.201 47.1533 137.777 48.1637C139.619 51.3921 141.552 54.7849 141.561 56.0417C141.824 55.9596 143.494 55.7296 143.494 55.7296C143.683 53.8894 144.037 52.189 143.823 50.3406C143.502 50.316 143.173 50.2996 142.852 50.2503C141.166 50.0038 140.072 48.1555 140.393 46.5618C140.738 44.8449 142.408 43.8591 144.086 44.1056C144.185 44.122 144.571 44.1631 144.604 44.1795C144.785 44.1877 144.966 44.196 145.147 44.2042C145.756 44.2288 146.356 44.2617 146.965 44.3192C148.092 44.4342 149.194 44.886 150.206 45.4117C158.663 49.7902 154.739 63.5665 148.701 67.6ZM143.255 35.6936C143.28 35.8415 143.28 35.9729 143.288 36.1126C143.741 37.9034 142.169 39.7271 140.442 40.5568C138.246 41.6083 135.835 41.978 133.524 42.7009C131.912 43.202 130.423 44.0481 128.777 44.4835C125.726 45.305 123.727 44.2288 123.776 41.3618C123.085 39.9818 123.636 38.0595 124.928 36.8026C127.025 34.7653 130.036 33.681 132.89 33.3113C133.261 33.262 133.655 33.2127 134.083 33.1717C138.122 31.8409 142.622 32.2105 143.255 35.6936Z" fill="#F37B29"/>
<path d="M126.548 51.9094C129.09 53.5934 131.961 51.4329 133.088 49.3217C131.591 47.917 127.206 48.2867 126.548 51.9094Z" fill="#FCC68F"/>
<path d="M141.215 46.2331C142.071 47.0052 143.543 47.2188 144.613 46.8245C146.003 46.307 146.579 45.5019 147.294 44.1629C144.818 42.4789 142.877 43.3332 140.936 45.3459L141.215 46.2331Z" fill="#FCC68F"/>
<path d="M138.122 62.6462C138.122 62.6462 140.006 64.0098 142.572 62.7612C145.139 61.5125 145.896 59.4835 145.698 59.6067C145.501 59.7299 143.634 59.6231 141.709 60.3132C139.784 61.0032 138.13 62.6544 138.13 62.6544L138.122 62.6462Z" fill="#B63A26"/>
<path d="M139.504 61.4878C139.504 61.4878 139.94 62.0217 142.194 61.0934C144.44 60.157 144.547 59.3848 144.547 59.3848C144.547 59.3848 142.836 59.9352 141.898 60.2802C140.96 60.6252 139.504 61.4878 139.504 61.4878Z" fill="white"/>
<path d="M141.478 59.6313C140.878 59.8613 140.615 59.4095 140.393 59.5492C138.492 60.6992 137.637 62.8022 137.678 62.8187C138.246 63.1062 140.195 64.9874 143.263 63.7798C146.381 62.5476 146.208 59.4013 146.208 59.4013C146.208 59.4013 144.308 58.5552 142.268 58.8755C141.881 58.933 142.095 59.4013 141.478 59.6477V59.6313ZM142.712 62.3668C139.989 63.4512 138.295 62.5722 138.295 62.5722C138.352 62.5229 139.035 61.7097 140.286 61.1018C140.705 60.8964 141.594 60.8142 141.997 60.6582C142.605 60.4281 143.058 60.0092 143.535 59.8695C144.711 59.5409 145.558 59.697 145.558 59.697C145.558 59.697 145.287 61.34 142.712 62.3668Z" fill="#F27448"/>
<path d="M140.096 64.6095C140.096 64.6095 140.82 67.3943 143.897 66.3346C146.982 65.2667 145.682 62.6051 145.575 62.7365C145.468 62.8679 144.366 63.788 143.041 64.2645C141.717 64.7409 140.096 64.6177 140.096 64.6177V64.6095Z" fill="#F69147"/>
<path d="M137.645 58.0952L140.261 58.1199L141.61 57.5284L143.486 55.7294L141.783 55.8033C141.783 55.8033 141.528 56.4851 140.467 57.0355C139.406 57.5859 139.027 56.9287 138.846 57.1012C138.665 57.2655 137.637 58.1035 137.637 58.1035L137.645 58.0952Z" fill="#E47528"/>
<path d="M140.804 46.1918C140.804 46.1918 142.161 46.4957 143.807 46.0521C145.46 45.6085 147.286 44.1627 147.286 44.1627C147.319 44.3352 147.484 44.7624 147.484 44.7624C147.484 44.7624 144.975 46.2986 144.078 46.6354C142.696 47.1611 140.746 46.7422 140.746 46.7422L140.804 46.1918Z" fill="#AB4825"/>
<path d="M126.573 51.5645C126.573 51.5645 127.93 51.8684 129.575 51.4248C131.229 50.9812 133.055 49.5354 133.055 49.5354C133.088 49.7079 133.252 50.1351 133.252 50.1351C133.252 50.1351 130.743 51.6713 129.847 52.0081C128.465 52.5338 126.515 52.1149 126.515 52.1149L126.573 51.5645Z" fill="#AB4825"/>
<path d="M151.827 73.9745C151.827 73.9745 151.802 74.0073 151.794 74.0155C152.189 69.6535 152.033 65.431 151.876 65.5543C151.572 65.8007 149.244 69.5713 145.731 71.7565C140.944 71.4936 137.802 70.5324 137.802 70.5324C137.999 70.861 139.307 73.4405 141.026 76.2007C140.459 75.831 133.927 78.1722 133.401 78.1722C133.401 78.1722 139.694 87.8164 148.8 85.927C157.585 84.1033 159.592 73.4405 159.592 73.4405L151.827 73.9662V73.9745Z" fill="#FBBD56"/>
<path d="M152.501 79.2566C153.744 79.6427 154.961 80.2834 156.104 81.146C158.811 77.589 159.592 73.4487 159.592 73.4487L151.827 73.9745C151.827 73.9745 151.802 74.0073 151.794 74.0155C152.189 69.6535 152.033 65.431 151.876 65.5543C151.703 65.6939 150.873 66.9672 149.557 68.4295C150.601 71.74 151.629 75.067 152.419 78.4515C152.485 78.7226 152.501 78.9855 152.501 79.2484V79.2566Z" fill="#EF984C"/>
<path d="M141.256 82.9779C141.906 82.1318 142.646 81.4582 143.428 80.8667C143.288 80.5463 143.165 80.2095 143.082 79.8645C142.391 76.9154 141.503 74.0402 140.59 71.1568C138.846 70.8446 137.81 70.5325 137.81 70.5325C138.007 70.8611 139.315 73.4405 141.034 76.2007C140.467 75.831 133.935 78.1723 133.409 78.1723C133.409 78.1723 136.107 82.2714 140.5 84.6044C140.631 84.0212 140.878 83.4626 141.256 82.9697V82.9779Z" fill="#EF984C"/>
<path d="M162.833 42.6677C158.819 35.0362 151.037 25.622 146.068 22.5332C141.404 19.6334 126.606 16.0435 125.109 23.9297C122.09 24.3898 120.848 24.1762 118.256 26.1559C115.377 28.3575 111.799 33.0317 111.593 36.6873C111.092 45.4772 111.848 57.7912 115.13 62.9912C117.483 66.7289 121.349 69.0701 125.693 69.7848C126.762 69.9573 131.369 70.2366 130.908 68.3801C127.395 67.2382 124.154 60.6171 123.603 57.6433C123.036 54.5792 121.9 51.778 122.238 48.9192C123.101 41.723 124.73 41.1398 125.981 37.3938C125.051 40.5072 123.521 45.2636 125.191 48.0649C132.306 44.0642 130.99 39.9733 132.841 36.8845C132.504 38.5932 132.685 40.499 132.685 42.257C134.7 41.6737 138.624 39.0532 140.088 35.8905C140.903 34.1325 142.178 32.2103 139.685 29.1133C141.207 29.9265 142.095 31.0848 143.074 32.3006C144.555 34.1407 143.469 34.0504 144.547 36.0137C146.43 39.4229 150.971 39.1436 153.423 41.3698C154.985 44.5243 156.326 47.9006 156.721 51.129C157.124 54.4149 155.57 60.806 152.625 64.7574C156.507 65.0038 162.117 60.535 163.631 57.0108C166.025 51.4329 164.865 46.5205 162.833 42.6595V42.6677Z" fill="#85301B"/>
<path d="M123.595 57.6351C123.028 54.571 121.892 51.7697 122.23 48.911C122.715 44.8857 123.431 42.9306 124.196 41.3287C125.199 39.2668 126.088 37.936 126.573 35.9233C125.421 36.1862 122.945 37.0488 121.975 38.6589C120.469 41.1562 120.535 45.1568 120.568 47.3091C120.65 53.273 122.633 61.0114 118.766 66.8686C120.774 68.3554 123.143 69.3494 125.693 69.7684C126.762 69.9409 131.369 70.2202 130.908 68.3637C127.396 67.2218 124.155 60.6007 123.603 57.6269L123.595 57.6351Z" fill="#671F0E"/>
<path d="M162.85 42.7087C154.138 39.7678 143.675 32.0787 136.847 26.2462C136.781 26.3366 136.707 26.4105 136.642 26.5009C137.612 30.3947 137.168 34.7321 136.131 38.5027C135.63 40.3182 133.639 40.1539 132.627 39.0367C132.611 40.1128 132.668 41.2136 132.668 42.2569C134.684 41.6736 139.159 39.9075 140.623 36.7448C141.437 34.9868 142.161 32.2102 139.677 29.1132C140.615 30.9779 141.511 34.2146 143.708 36.6133C146.34 39.4803 150.971 39.1517 153.423 41.3779C154.985 44.5324 156.326 47.9087 156.721 51.1371C157.124 54.423 155.38 60.7484 152.435 64.6998C156.318 64.9462 162.117 60.5431 163.631 57.0189C166.017 51.4575 164.865 46.5615 162.85 42.7087Z" fill="#671F0E"/>
<path d="M121.711 50.8581L124.409 57.2328C124.409 57.2328 136.378 53.7086 136.831 52.731C137.39 51.5317 135.967 49.7573 137.448 49.2315C138.928 48.7058 139.331 51.9178 140.656 51.696C141.98 51.4742 153.2 47.5393 153.2 47.5393L151.382 40.9346L121.711 50.8663V50.8581Z" fill="white"/>
<path d="M126.245 50.9625L132.411 48.9936C133.39 48.6809 134.435 49.2185 134.748 50.1966L134.921 50.7365C135.234 51.7146 134.696 52.7576 133.716 53.0703L127.55 55.0391C126.57 55.3518 125.526 54.8142 125.213 53.8361L125.04 53.2962C124.727 52.3181 125.265 51.2752 126.245 50.9625Z" fill="#EB7886"/>
<path d="M148.961 43.3123L140.679 45.9566C140.285 46.0823 140.068 46.503 140.194 46.8962L141.043 49.5488C141.169 49.942 141.59 50.1589 141.984 50.0332L150.266 47.3889C150.66 47.2632 150.877 46.8425 150.751 46.4492L149.902 43.7967C149.776 43.4034 149.355 43.1866 148.961 43.3123Z" fill="#3274F6"/>
<path d="M121.711 50.858L117.105 57.2656C117.261 57.3231 117.417 57.3806 117.574 57.4381C118.117 57.6681 118.692 57.8242 119.268 57.9638C120.708 56.2634 122.74 53.8482 122.764 53.725C122.805 53.5278 121.695 50.8662 121.695 50.8662L121.711 50.858Z" fill="#CBE6F8"/>
<path d="M132.644 33.0153C131.92 33.6478 129.065 36.5887 128.045 43.7192C127.782 45.5839 125.594 45.9125 124.467 45.0828C124.492 46.1836 124.681 47.2187 125.183 48.0648C130.719 45.0993 132.208 41.3204 132.627 38.9546C132.841 37.7388 133.179 35.1593 132.644 33.0153Z" fill="#671F0E"/>
<path d="M156.458 106.99C156.458 106.99 159.066 101.979 162.455 102.168C165.671 102.349 166.65 106.99 166.65 106.99L166.239 153.88L157.223 154.159L156.458 106.99Z" fill="#EB7886"/>
<path d="M179.121 108.871C179.121 108.871 179.121 102.439 174.827 102.439C170.533 102.439 166.782 107.795 166.782 107.795L166.247 153.88L178.586 154.414L179.121 108.871Z" fill="white"/>
<path d="M190.39 109.405C189.856 107.795 189.321 104.583 186.096 104.583C182.872 104.583 179.121 108.871 179.121 108.871L178.586 154.414L185.562 156.024L190.39 109.405Z" fill="#EB7886"/>
<path d="M151.514 106.9C151.514 106.9 151.868 99.9416 154.196 101.905C156.524 103.868 156.409 107.261 156.409 107.261L157.231 154.159L153.127 153.091C153.127 152.558 151.523 106.908 151.523 106.908L151.514 106.9Z" fill="#D8D8D8"/>
<path d="M148.652 152.023C149.186 152.023 153.118 153.091 153.118 153.091L151.514 106.908C151.514 106.908 151.161 102.447 148.833 102.275C146.628 102.102 147.048 106.908 147.048 106.908L148.652 152.023Z" fill="#EB7886"/>
<path d="M144.728 151.309L148.66 152.024L147.056 105.306C147.056 105.306 146.274 102.086 144.785 102.981C143.305 103.876 143.305 107.622 143.305 107.622L144.736 151.309H144.728Z" fill="#D8D8D8"/>
<path d="M169.282 136.136C169.282 136.136 163.631 134.928 161.937 135.618C161.032 135.988 161.114 136.382 158.761 137.311C157.873 137.664 155.586 138.017 155.586 138.017C155.586 138.017 155.479 139.874 157.717 139.545C159.008 139.356 161.501 138.633 161.501 138.633C161.501 138.633 159.658 140.745 157.75 141.525C155.635 142.388 154.426 142.059 154.426 142.059C154.426 142.059 153.571 140.128 152.279 140.564C150.996 140.991 150.889 143.883 151.531 145.164C152.172 146.446 154.533 148.269 154.533 148.269C154.533 148.269 160.67 148.655 162.915 147.801C165.169 146.947 171.421 140.063 171.421 140.063L169.274 136.128L169.282 136.136Z" fill="#FBBD56"/>
<path opacity="0.8" d="M154.007 147.399C153.932 146.922 154.459 146.667 154.632 146.478C154.508 146.454 152.97 145.854 154.187 144.49C153.982 144.326 153.274 143.644 153.077 143.431C152.008 142.248 152.402 141.582 151.851 140.851C150.988 141.714 150.971 144.055 151.539 145.181C152.115 146.331 154.056 147.9 154.451 148.22C154.533 148.08 154.097 148.064 153.998 147.407L154.007 147.399Z" fill="#F37B29"/>
<path opacity="0.8" d="M164.248 138.527C163.903 140.309 161.904 141.886 160.645 142.987C160.308 143.283 159.905 143.538 159.493 143.759C159.559 143.759 159.625 143.759 159.683 143.759C160.793 143.915 160.941 145.222 160.341 145.821C160.374 145.821 160.406 145.821 160.439 145.838C161.764 146.084 161.706 147.965 160.612 148.171C160.629 148.195 160.662 148.212 160.678 148.245C161.566 148.163 162.364 148.023 162.932 147.809C165.186 146.955 171.438 140.071 171.438 140.071L170.401 138.182C169.809 138.338 164.717 138.461 164.248 138.527Z" fill="#F37B29"/>
<path d="M169.258 136.078L171.405 140.013C171.405 140.013 179.647 138.223 185.019 135.717C190.39 133.211 195.408 132.497 198.279 128.2C201.142 123.904 202.285 119.977 202.285 119.977C202.285 119.977 195.137 113.134 190.62 115.476C186.104 117.825 169.258 136.07 169.258 136.07V136.078Z" fill="#1A365F"/>
<path d="M197.95 116.749C198.411 119.805 197.045 123.682 194.651 126.139C188.136 132.834 179.145 135.421 170.763 138.847L171.405 140.013C171.405 140.013 179.647 138.223 185.019 135.717C190.39 133.211 195.408 132.497 198.279 128.2C201.142 123.904 202.285 119.977 202.285 119.977C202.285 119.977 200.401 118.178 197.958 116.741L197.95 116.749Z" fill="#091F3E"/>
<path d="M158.605 62.5723C159.074 62.5148 173.766 68.8484 179.014 72.2001C184.27 75.5517 188.572 79.0266 188.572 79.0266L186.886 81.7868C186.886 81.7868 175.592 80.801 168.155 78.5665C161.262 76.4964 151.506 73.9663 151.802 73.3748C151.967 73.0544 152.098 70.2285 151.868 65.5543C152.238 65.5707 152.238 64.8232 152.616 64.7492C155.742 64.8232 158.597 62.5641 158.597 62.5641L158.605 62.5723Z" fill="#F7DA68"/>
<path d="M187.289 94.5854C187.75 92.2359 185.874 91.5377 185.636 89.3443C185.537 88.4078 185.973 83.9965 186.129 83.3311C186.261 82.7807 188.186 79.6015 188.572 79.0265C188.572 79.0265 196.083 88.416 197.193 89.5086C197.193 89.5086 197.193 91.2748 196.963 94.1007C196.732 96.9102 195.704 99.4814 193.483 101.642C191.18 103.885 190.711 102.611 190.728 100.237C190.752 97.0662 192.003 93.8789 190.456 90.8805C190.028 91.9566 190.366 94.1993 189.436 95.0536C188.778 95.6533 188.251 96.3105 187.281 94.5689L187.289 94.5854Z" fill="#FAB365"/>
<path d="M196 98.0437C195.861 98.0108 195.737 97.9533 195.622 97.863C195.096 98.1587 194.24 97.9451 193.977 97.2551C193.491 98.0766 191.937 97.8383 191.978 96.6636C192.019 95.456 192.068 94.2238 192.249 93.0327C192.34 92.4494 192.578 91.8169 192.652 91.2007C191.32 89.8042 190.711 87.9313 189.831 86.2061C188.687 83.9635 188.243 82.1069 188.103 79.7986C187.396 80.9487 186.236 82.9202 186.137 83.3392C185.981 83.9964 185.537 88.4159 185.644 89.3524C185.882 91.5458 187.766 92.244 187.297 94.5935C188.153 96.1379 188.671 95.7928 189.23 95.2753C189.123 95.2342 188.301 95.2999 188.153 94.0841C188.128 93.8952 188.515 93.2298 187.914 91.9812C187.643 91.5951 186.87 90.4368 186.73 90.0425C186.434 89.2045 188.408 88.7117 188.605 88.7199C189.897 88.7363 190.415 89.9357 190.612 91.2829C191.879 94.1745 190.76 97.2304 190.736 100.27C190.719 102.644 191.188 103.917 193.491 101.675C194.627 100.566 195.441 99.3581 196 98.0601V98.0437Z" fill="#F69147"/>
<path d="M151.819 67.8789C151.786 70.8198 151.835 73.9743 151.835 73.9743C151.835 73.9743 161.278 76.4963 168.172 78.5664C175.608 80.8008 186.417 81.9427 186.417 81.9427L187.38 80.423C176.505 78.1557 156.343 67.9693 151.819 67.8707V67.8789Z" fill="#E6C64C"/>
<path d="M151.383 40.9346C151.383 40.9346 152.115 44.4998 152.411 44.4012C152.707 44.3026 158.712 45.2884 158.712 45.2884L157.922 43.3251L151.391 40.9428L151.383 40.9346Z" fill="#CBE6F8"/>
<path d="M107.118 30.3291L107.62 34.2394L111.939 34.8637L112.86 32.6128L107.118 30.3291Z" fill="#CBE6F8"/>
<path d="M33.1749 116.782C33.1749 116.782 59.5557 110.884 59.7285 110.473L65.9309 166.983C65.9309 166.983 64.335 169.373 60.3536 170.367C56.4216 171.345 52.7693 170.441 52.7693 170.441L33.1749 116.782Z" fill="white"/>
<path d="M62.0647 156.114C51.7904 143.611 44.132 131.626 38.7687 116.281C38.6864 116.042 38.6288 115.812 38.5548 115.574C35.4042 116.289 33.1832 116.782 33.1832 116.782L52.7776 170.441C52.7776 170.441 56.4299 171.345 60.3619 170.367C64.3433 169.373 65.9392 166.983 65.9392 166.983L65.0754 159.113C64.0307 158.267 63.0189 157.273 62.0647 156.114Z" fill="#D8D8D8"/>
<path d="M53.6906 112.625L63.5124 168.987L64.6805 168.346L56.7342 111.606L53.6906 112.625Z" fill="#EB7886"/>
<path d="M48.5987 113.471L61.1515 170.162L59.4241 170.638L44.8147 114.268L48.5987 113.471Z" fill="#EB7886"/>
<path d="M39.1718 115.229L56.6768 170.794H55.155L36.1858 115.829L39.1718 115.229Z" fill="#EB7886"/>
<path d="M60.0987 111.245L33.43 118.047L32.8706 116.626L60.0575 110.087L60.0987 111.245Z" fill="white"/>
<path d="M45.0698 103.367L46.2544 102.891L46.6163 113.266L45.6621 113.479L45.0698 103.367Z" fill="white"/>
<path d="M60.8636 135.191C60.1479 133.039 54.3568 135.257 52.6047 135.282C54.2334 134.887 61.8589 133.195 60.8636 130.476C59.9505 127.995 54.2992 130.073 52.6047 130.18C54.1265 129.203 57.7213 128.94 58.2313 127.034C59.4487 122.442 50.5482 126.385 49.1744 126.779C43.1119 128.529 35.1409 126.254 33.2653 124.619C32.1137 126.278 29.8927 127.946 29.0207 129.367C28.3297 130.501 27.6388 131.905 26.7175 132.875C26.1087 133.507 25.1874 133.86 24.735 134.575C26.5694 136.111 29.3744 137.089 31.5461 138.165C34.5486 139.652 34.1373 139.865 37.2632 141.081C40.2575 142.248 46.9205 143.069 50.0546 142.437C50.8279 142.281 59.3994 141.352 58.9469 138.995C58.8071 138.255 58.0667 137.96 57.129 137.886C59.4323 137.541 61.423 136.892 60.8554 135.191H60.8636ZM52.3332 138.453C52.4402 138.428 52.5635 138.411 52.6787 138.395C52.5306 138.428 52.399 138.444 52.3332 138.453Z" fill="#FAB365"/>
<path d="M57.1374 127.215C51.0501 127.962 43.7701 131.462 37.8309 128.365C36.6957 127.773 35.3302 123.255 34.9518 122.343C34.9518 122.343 29.9093 127.954 29.0373 129.375C28.3464 130.509 25.204 133.869 24.7516 134.583C26.586 136.12 29.3911 137.097 31.5627 138.173C34.5652 139.66 34.1539 139.874 37.2798 141.089C39.3281 141.886 43.0791 142.511 46.2626 142.634C45.0945 141.393 44.4611 140.284 45.4153 138.543C46.1145 137.261 46.205 135.857 45.0945 135.224C44.3048 134.435 44.7654 132.119 45.8842 131.741C49.1335 130.648 51.5848 130.632 55.8212 128.956C56.9646 128.529 57.9846 127.995 58.2314 127.042C58.2725 126.894 58.2725 126.779 58.289 126.648C58.0011 126.927 57.6474 127.157 57.1291 127.223L57.1374 127.215Z" fill="#F69147"/>
</g>
<defs>
<filter id="filter0_d_465_20528" x="0" y="0" width="237" height="277.273" filterUnits="userSpaceOnUse" color-interpolation-filters="sRGB">
<feFlood flood-opacity="0" result="BackgroundImageFix"/>
<feColorMatrix in="SourceAlpha" type="matrix" values="0 0 0 0 0 0 0 0 0 0 0 0 0 0 0 0 0 0 127 0" result="hardAlpha"/>
<feOffset dy="4"/>
<feGaussianBlur stdDeviation="2"/>
<feComposite in2="hardAlpha" operator="out"/>
<feColorMatrix type="matrix" values="0 0 0 0 0 0 0 0 0 0 0 0 0 0 0 0 0 0 0.25 0"/>
<feBlend mode="normal" in2="BackgroundImageFix" result="effect1_dropShadow_465_20528"/>
<feBlend mode="normal" in="SourceGraphic" in2="effect1_dropShadow_465_20528" result="shape"/>
</filter>
</defs>
</svg>
